<svg version="1.1" id="Layer_1" xmlns="http://www.w3.org/2000/svg" xmlns:xlink="http://www.w3.org/1999/xlink" x="0px" y="0px"
	 width="100%" viewBox="0 0 536 517" enable-background="new 0 0 536 517" xml:space="preserve">
<path fill="#00000000" opacity="1.000000" stroke="none" 
	d="
M408.000000,1.000000 
	C416.354218,1.000000 424.708466,1.000000 433.604065,1.370166 
	C434.467285,2.100138 434.733917,2.696246 435.118774,2.786090 
	C465.706665,9.926649 489.798523,27.492353 509.218658,51.224201 
	C522.330017,67.246651 530.836853,86.101448 535.001892,106.649750 
	C535.245544,107.852119 536.314880,108.887115 537.000000,110.000000 
	C537.000000,245.886414 537.000000,381.772827 537.000000,518.000000 
	C498.646454,518.000000 460.291870,518.000000 421.468811,517.638489 
	C421.003326,516.553955 421.006287,515.830933 421.410431,515.026855 
	C431.856873,511.895691 441.960266,509.022888 451.932983,505.751587 
	C465.003571,501.464111 476.380005,493.725891 486.766846,485.230438 
	C500.418884,474.064362 511.643677,460.276489 519.130188,444.087830 
	C523.869812,433.838959 529.357910,423.799713 530.249084,412.027039 
	C530.852173,404.059448 533.903809,396.196564 533.936401,388.278900 
	C534.235413,315.647156 534.266357,243.013123 534.007324,170.381073 
	C533.941711,151.991577 535.493103,133.568787 532.158325,115.183205 
	C529.202209,98.884956 524.652954,83.358696 515.896240,68.823486 
	C514.558167,66.970001 513.350769,65.442642 512.101196,63.576546 
	C511.382477,62.138378 510.705902,61.038948 509.990082,59.631958 
	C509.353302,58.848392 508.755737,58.372391 508.121643,57.546402 
	C506.731445,55.446758 505.377716,53.697102 503.989319,51.605766 
	C500.276276,47.329243 496.716858,43.273506 492.879639,39.500290 
	C490.129059,36.795525 487.006775,34.468773 483.886139,31.680183 
	C481.142151,29.559807 478.562378,27.732616 475.835510,25.612497 
	C473.448639,23.895178 471.208801,22.470785 468.726776,21.029114 
	C468.484558,21.011835 467.999268,20.992214 467.848877,20.684097 
	C461.751617,17.317743 455.804779,14.259507 449.505676,11.139162 
	C448.434814,11.037433 447.716187,10.997812 446.805878,10.692923 
	C445.400787,9.964701 444.187408,9.501748 442.731079,9.026145 
	C442.488129,9.013494 442.000549,9.004325 441.790283,8.735288 
	C440.688202,8.352633 439.796356,8.239016 438.662140,7.848470 
	C436.944641,7.374190 435.469574,7.176839 433.780457,6.714330 
	C432.028625,5.988642 430.490875,5.528111 428.585724,5.041735 
	C427.478668,5.007749 426.738953,4.999607 425.744995,4.711135 
	C423.955902,4.336619 422.421051,4.242434 420.617889,3.847839 
	C416.253723,3.160320 412.157898,2.773211 408.036560,2.040021 
	C408.007355,1.462628 408.003662,1.231314 408.000000,1.000000 
z"/>
<path fill="#00000000" opacity="1.000000" stroke="none" 
	d="
M115.000000,518.000000 
	C77.072403,518.000000 39.144814,518.000000 1.000000,518.000000 
	C1.000000,479.646057 1.000000,441.291687 1.352356,402.468933 
	C2.409391,402.006348 3.114071,402.012177 3.883739,402.456482 
	C4.631697,405.592590 5.314666,408.290192 6.013049,411.229187 
	C6.028464,411.470612 6.077723,411.951630 6.054796,412.310425 
	C6.691429,414.779877 7.350988,416.890564 8.021795,419.241882 
	C8.033043,419.482574 8.061159,419.963593 8.110916,420.153778 
	C8.468342,420.296844 8.776010,420.249725 9.278227,420.188660 
	C9.472775,420.174713 9.846792,420.063873 9.942969,420.378174 
	C10.132282,421.119751 10.225418,421.546997 10.214777,421.947266 
	C10.111000,421.920258 9.908982,421.992249 9.743317,422.089569 
	C9.713535,422.471069 9.849421,422.755280 10.169188,423.069458 
	C10.353072,423.099487 10.725523,423.088013 10.831617,423.393494 
	C10.968501,424.127380 10.999290,424.555756 10.760630,425.128998 
	C10.340053,425.846222 10.188923,426.418640 10.075533,427.369690 
	C13.314146,434.936493 16.479450,442.141022 19.769035,449.288361 
	C20.111191,450.031769 21.190844,450.435760 21.961834,451.239685 
	C21.995352,451.482117 22.047115,451.968597 22.060881,452.324432 
	C24.939289,455.628235 24.850367,461.180420 30.355591,462.074585 
	C30.490505,462.230072 30.758543,462.542511 30.565790,462.863403 
	C31.261349,464.618347 31.962061,466.223907 33.080513,467.447693 
	C34.905548,469.444550 37.003086,471.192383 38.989136,473.416992 
	C40.317036,474.861786 41.641445,475.934906 43.254768,477.132324 
	C44.358452,478.189362 45.173214,479.122101 46.087170,480.265930 
	C46.373745,480.740143 46.621418,480.920502 47.210869,481.194702 
	C51.327000,484.607483 55.161648,487.843658 59.107933,491.291504 
	C59.428596,491.763000 59.695568,491.930542 60.258625,492.238403 
	C64.329163,494.963501 68.161552,497.456024 72.106110,500.190979 
	C72.521667,500.603912 72.825050,500.774384 73.448639,501.073242 
	C86.685341,508.270416 100.342636,513.129211 114.995331,515.393066 
	C114.997375,516.510315 114.998688,517.255127 115.000000,518.000000 
M8.490991,424.596069 
	C8.490991,424.596069 8.415172,424.475342 8.490991,424.596069 
z"/>
<path fill="#00000000" opacity="1.000000" stroke="none" 
	d="
M1.000000,118.000000 
	C1.000000,79.071205 1.000000,40.142414 1.000000,1.000000 
	C41.687313,1.000000 82.375000,1.000000 123.626923,1.155370 
	C124.460777,1.207161 124.730392,1.103582 125.000000,1.000002 
	C125.750000,1.000000 126.500000,1.000000 127.631699,1.324762 
	C128.000015,2.082404 127.986649,2.515285 127.526550,2.959024 
	C124.394569,2.999310 121.709305,3.028737 118.596710,3.038984 
	C106.289268,4.393763 95.064964,8.128870 84.109001,12.709736 
	C82.846832,13.237467 82.099945,14.997599 80.891647,16.428755 
	C79.100395,17.490107 77.531639,18.309036 75.650459,19.062777 
	C74.912262,19.024961 74.486488,19.052336 73.674988,19.056202 
	C69.500999,21.327250 65.712746,23.621805 61.552303,25.946690 
	C57.806774,26.073357 55.694912,27.682686 54.898506,31.351191 
	C53.065594,33.376732 51.402225,35.124168 49.366447,36.892532 
	C40.707851,38.632023 37.106068,45.069084 33.538097,51.936749 
	C31.458536,53.168732 29.067444,53.981892 28.126854,55.625256 
	C22.475832,65.498505 16.205210,75.180382 11.998585,85.670784 
	C7.861740,95.987175 5.932596,107.188858 2.695585,118.001442 
	C1.904312,118.000542 1.452156,118.000267 1.000000,118.000000 
z"/>
<path fill="#00000000" opacity="1.000000" stroke="none" 
	d="
M537.000000,109.531342 
	C536.314880,108.887115 535.245544,107.852119 535.001892,106.649750 
	C530.836853,86.101448 522.330017,67.246651 509.218658,51.224201 
	C489.798523,27.492353 465.706665,9.926649 435.118774,2.786090 
	C434.733917,2.696246 434.467285,2.100138 434.072754,1.370166 
	C468.262360,1.000000 502.524689,1.000000 537.000000,1.000000 
	C537.000000,37.020615 537.000000,73.041649 537.000000,109.531342 
z"/>
<path fill="#FBFCFC" opacity="1.000000" stroke="none" 
	d="
M115.467850,518.000000 
	C114.998688,517.255127 114.997375,516.510315 115.464592,515.385620 
	C118.429237,515.029053 120.925339,515.072449 123.421448,515.072815 
	C222.617386,515.086975 321.813324,515.097168 421.009277,515.107910 
	C421.006287,515.830933 421.003326,516.553955 421.000183,517.638489 
	C319.311890,518.000000 217.623810,518.000000 115.467850,518.000000 
z"/>
<path fill="#00000000" opacity="1.000000" stroke="none" 
	d="
M127.973282,2.948165 
	C127.986649,2.515285 128.000015,2.082404 128.006699,1.324762 
	C221.020889,1.000000 314.041779,1.000000 407.531342,1.000000 
	C408.003662,1.231314 408.007355,1.462628 408.037048,2.340164 
	C408.061523,3.394646 408.060028,3.802905 407.581970,4.203603 
	C314.387360,4.183517 221.669296,4.170992 128.866608,3.902660 
	C128.512405,3.413956 128.242844,3.181061 127.973282,2.948165 
z"/>
<path fill="#00000000" opacity="1.000000" stroke="none" 
	d="
M1.000000,118.468658 
	C1.452156,118.000267 1.904312,118.000542 2.804056,118.221512 
	C3.449313,118.722305 3.713887,118.906136 4.028672,119.367981 
	C3.996086,120.490623 3.980191,121.238983 3.677764,122.290619 
	C3.267888,123.907211 3.036817,125.220497 3.036573,126.533821 
	C3.020258,214.457245 3.017531,302.380676 3.063457,390.304077 
	C3.064274,391.868744 3.667954,393.433075 3.987234,395.434998 
	C4.011202,397.911072 4.038271,399.949768 4.002726,401.987793 
	C3.940112,401.987122 3.818750,402.018005 3.818750,402.018005 
	C3.114071,402.012177 2.409391,402.006348 1.352356,402.000244 
	C1.000000,307.645782 1.000000,213.291550 1.000000,118.468658 
z"/>
<path fill="#00000000" opacity="1.000000" stroke="none" 
	d="
M124.750000,1.000002 
	C124.730392,1.103582 124.460777,1.207161 124.095581,1.155370 
	C124.000000,1.000000 124.500000,1.000000 124.750000,1.000002 
z"/>
<path fill="#00000000" opacity="1.000000" stroke="none" 
	d="
M421.410431,515.026855 
	C321.813324,515.097168 222.617386,515.086975 123.421448,515.072815 
	C120.925339,515.072449 118.429237,515.029053 115.463867,515.013184 
	C100.342636,513.129211 86.685341,508.270416 73.305656,500.857452 
	C72.559631,500.325043 72.276787,500.136780 71.993942,499.948547 
	C68.161552,497.456024 64.329163,494.963501 60.160564,492.013367 
	C59.618992,491.274170 59.342972,491.115540 58.996292,491.079865 
	C55.161648,487.843658 51.327000,484.607483 47.138412,480.964081 
	C46.597187,480.265472 46.331692,480.098145 45.987980,480.054871 
	C45.173214,479.122101 44.358452,478.189362 43.145576,476.832123 
	C41.493530,475.286865 40.239590,474.166077 38.985649,473.045288 
	C37.003086,471.192383 34.905548,469.444550 33.080513,467.447693 
	C31.962061,466.223907 31.261349,464.618347 30.847258,462.969543 
	C34.717224,465.920471 38.384243,468.844299 41.460629,472.294708 
	C53.297073,485.570251 67.611008,495.342957 83.780693,502.425110 
	C96.766609,508.112823 110.298538,512.828979 124.528580,512.868958 
	C219.813354,513.136475 315.099274,513.008972 410.384796,512.984863 
	C412.366913,512.984375 414.358246,512.760498 416.329590,512.514832 
	C428.736206,510.968536 440.658386,507.791321 452.275635,503.026764 
	C465.369659,497.656494 477.010681,490.015930 487.535767,480.876282 
	C502.032410,468.287842 512.628418,452.648773 520.600098,435.152649 
	C527.094910,420.897766 530.990417,405.929291 531.042175,390.423553 
	C531.332153,303.468018 531.326355,216.510513 530.998901,129.555283 
	C530.963257,120.090370 529.076050,110.395416 526.505798,101.239990 
	C523.610596,90.926842 518.968750,81.104034 515.309265,70.893509 
	C515.696899,70.195923 515.861816,69.672768 516.026794,69.149612 
	C524.652954,83.358696 529.202209,98.884956 532.158325,115.183205 
	C535.493103,133.568787 533.941711,151.991577 534.007324,170.381073 
	C534.266357,243.013123 534.235413,315.647156 533.936401,388.278900 
	C533.903809,396.196564 530.852173,404.059448 530.249084,412.027039 
	C529.357910,423.799713 523.869812,433.838959 519.130188,444.087830 
	C511.643677,460.276489 500.418884,474.064362 486.766846,485.230438 
	C476.380005,493.725891 465.003571,501.464111 451.932983,505.751587 
	C441.960266,509.022888 431.856873,511.895691 421.410431,515.026855 
z"/>
<path fill="#00000000" opacity="1.000000" stroke="none" 
	d="
M484.050354,31.973366 
	C487.006775,34.468773 490.129059,36.795525 492.879639,39.500290 
	C496.716858,43.273506 500.276276,47.329243 503.653015,51.715691 
	C503.128296,52.242794 502.905151,52.318295 502.427551,52.170761 
	C496.089661,45.934757 490.006195,39.921787 483.944641,33.586334 
	C483.994476,32.833687 484.022400,32.403522 484.050354,31.973366 
z"/>
<path fill="#00000000" opacity="1.000000" stroke="none" 
	d="
M449.857941,11.201269 
	C455.804779,14.259507 461.751617,17.317743 467.856567,21.047409 
	C468.017090,21.960995 468.019470,22.203152 467.732239,22.331343 
	C467.251831,22.139545 467.060974,22.061714 466.777893,21.768570 
	C466.457672,21.287098 466.173187,21.194792 465.484558,21.187578 
	C461.054901,19.049812 456.972839,17.000805 452.792389,14.735859 
	C452.461334,14.252935 452.172272,14.158894 451.584167,14.200378 
	C451.341522,14.162966 450.881226,13.992024 450.794434,13.777592 
	C450.492828,13.290592 450.215546,13.190070 449.819580,13.265020 
	C449.763458,13.268449 449.652039,13.253164 449.728760,12.915330 
	C449.822968,12.118753 449.840454,11.660010 449.857941,11.201269 
z"/>
<path fill="#00000000" opacity="1.000000" stroke="none" 
	d="
M408.058533,4.211163 
	C408.060028,3.802905 408.061523,3.394646 408.062500,2.686244 
	C412.157898,2.773211 416.253723,3.160320 420.631958,4.136434 
	C420.916534,5.113963 420.918732,5.502487 420.515381,5.918448 
	C416.092712,5.367644 412.075623,4.789403 408.058533,4.211163 
z"/>
<path fill="#00000000" opacity="1.000000" stroke="none" 
	d="
M483.886139,31.680178 
	C484.022400,32.403522 483.994476,32.833687 483.634155,33.487007 
	C480.849274,31.638918 478.396790,29.567671 475.959717,27.098812 
	C475.977570,26.435947 475.980072,26.170692 475.982605,25.905432 
	C478.562378,27.732616 481.142151,29.559807 483.886139,31.680178 
z"/>
<path fill="#00000000" opacity="1.000000" stroke="none" 
	d="
M502.682007,52.393799 
	C502.905151,52.318295 503.128296,52.242794 503.687744,52.057369 
	C505.377716,53.697102 506.731445,55.446758 508.068695,57.872429 
	C508.084229,58.983429 508.116180,59.418411 508.104187,59.897873 
	C508.060242,59.942356 507.973175,60.032181 507.646851,59.939781 
	C505.774384,57.362858 504.228180,54.878330 502.682007,52.393799 
z"/>
<path fill="#00000000" opacity="1.000000" stroke="none" 
	d="
M475.835510,25.612503 
	C475.980072,26.170692 475.977570,26.435947 475.699249,26.970882 
	C475.249115,27.159636 475.074799,27.078711 474.807800,26.773445 
	C474.486115,26.268835 474.194061,26.164122 473.510803,26.164867 
	C471.744598,25.070560 470.306519,24.046350 468.908905,22.693985 
	C468.955902,21.926018 468.962433,21.486204 468.968994,21.046392 
	C471.208801,22.470785 473.448639,23.895178 475.835510,25.612503 
z"/>
<path fill="#00000000" opacity="1.000000" stroke="none" 
	d="
M515.896240,68.823486 
	C515.861816,69.672768 515.696899,70.195923 515.099426,70.619102 
	C513.674072,68.750618 512.681213,66.982101 511.796387,64.887016 
	C511.984100,64.345383 512.063721,64.130325 512.143372,63.915276 
	C513.350769,65.442642 514.558167,66.970001 515.896240,68.823486 
z"/>
<path fill="#00000000" opacity="1.000000" stroke="none" 
	d="
M512.101196,63.576538 
	C512.063721,64.130325 511.984100,64.345383 511.508545,64.763199 
	C510.066162,63.321358 509.019684,61.676762 507.973206,60.032173 
	C507.973175,60.032181 508.060242,59.942356 508.414246,59.947037 
	C509.188629,59.947651 509.608948,59.943584 510.029297,59.939514 
	C510.705902,61.038948 511.382477,62.138378 512.101196,63.576538 
z"/>
<path fill="#00000000" opacity="1.000000" stroke="none" 
	d="
M433.994476,6.979488 
	C435.469574,7.176839 436.944641,7.374190 438.676147,8.140858 
	C438.935608,9.103167 438.938660,9.496159 438.614502,9.831875 
	C436.876892,9.245742 435.466522,8.716885 434.041656,7.885844 
	C434.016296,7.382269 434.005371,7.180879 433.994476,6.979488 
z"/>
<path fill="#00000000" opacity="1.000000" stroke="none" 
	d="
M433.780457,6.714331 
	C434.005371,7.180879 434.016296,7.382269 433.642487,7.869435 
	C432.470459,8.059767 431.683136,7.964323 430.787048,7.670854 
	C430.439575,7.240107 430.158142,7.163435 429.597473,7.204895 
	C429.360901,7.166977 428.909027,7.007638 428.937592,6.684413 
	C428.961792,5.929983 428.957458,5.498778 428.953094,5.067576 
	C430.490875,5.528111 432.028625,5.988642 433.780457,6.714331 
z"/>
<path fill="#00000000" opacity="1.000000" stroke="none" 
	d="
M420.920959,5.891011 
	C420.918732,5.502487 420.916534,5.113963 420.900269,4.436843 
	C422.421051,4.242434 423.955902,4.336619 425.754974,5.026505 
	C426.029480,5.832207 426.039734,6.042209 425.620605,6.231192 
	C423.767761,6.103785 422.344360,5.997397 420.920959,5.891011 
z"/>
<path fill="#00000000" opacity="1.000000" stroke="none" 
	d="
M442.973999,9.038796 
	C444.187408,9.501748 445.400787,9.964701 446.820557,11.034658 
	C447.037079,11.869211 447.047180,12.096758 446.693787,12.260466 
	C445.851654,12.100019 445.372986,12.003409 444.790863,11.701959 
	C444.452942,11.251297 444.169983,11.166400 443.598663,11.198374 
	C443.358734,11.154319 442.904144,10.977177 442.937561,10.654720 
	C442.971985,9.901108 442.972992,9.469953 442.973999,9.038796 
z"/>
<path fill="#00000000" opacity="1.000000" stroke="none" 
	d="
M447.057251,12.324306 
	C447.047180,12.096758 447.037079,11.869211 447.012268,11.299928 
	C447.716187,10.997812 448.434814,11.037433 449.505676,11.139160 
	C449.840454,11.660010 449.822968,12.118753 449.446350,12.890378 
	C448.410583,12.910276 447.733917,12.617292 447.057251,12.324306 
z"/>
<path fill="#00000000" opacity="1.000000" stroke="none" 
	d="
M438.941711,9.889153 
	C438.938660,9.496159 438.935608,9.103167 438.918549,8.417786 
	C439.796356,8.239016 440.688202,8.352633 441.793945,9.113222 
	C442.011810,10.012201 442.015778,10.264208 441.639984,10.411274 
	C440.487396,10.167274 439.714569,10.028214 438.941711,9.889153 
z"/>
<path fill="#00000000" opacity="1.000000" stroke="none" 
	d="
M426.050018,6.252207 
	C426.039734,6.042209 426.029480,5.832207 426.009216,5.306834 
	C426.738953,4.999607 427.478668,5.007749 428.585724,5.041732 
	C428.957458,5.498778 428.961792,5.929983 428.627747,6.707965 
	C427.542877,6.787229 426.796448,6.519716 426.050018,6.252207 
z"/>
<path fill="#00000000" opacity="1.000000" stroke="none" 
	d="
M509.990082,59.631958 
	C509.608948,59.943584 509.188629,59.947651 508.458221,59.902554 
	C508.116180,59.418411 508.084229,58.983429 508.105225,58.222420 
	C508.755737,58.372391 509.353302,58.848392 509.990082,59.631958 
z"/>
<path fill="#00000000" opacity="1.000000" stroke="none" 
	d="
M468.726776,21.029114 
	C468.962433,21.486204 468.955902,21.926018 468.729980,22.660852 
	C468.266479,22.863400 468.103546,22.693211 468.021851,22.445309 
	C468.019470,22.203152 468.017090,21.960995 468.006989,21.355526 
	C467.999268,20.992214 468.484558,21.011835 468.726776,21.029114 
z"/>
<path fill="#00000000" opacity="1.000000" stroke="none" 
	d="
M442.019714,10.516214 
	C442.015778,10.264208 442.011810,10.012201 442.004211,9.382259 
	C442.000549,9.004325 442.488129,9.013494 442.731079,9.026146 
	C442.972992,9.469953 442.971985,9.901108 442.759949,10.644646 
	C442.303986,10.892291 442.127594,10.745354 442.019714,10.516214 
z"/>
<path fill="#FBBE32" opacity="1.000000" stroke="none" 
	d="
M441.639984,10.411274 
	C442.127594,10.745354 442.303986,10.892291 442.726501,10.967102 
	C442.904144,10.977177 443.358734,11.154319 443.724640,11.379137 
	C444.309937,11.833661 444.577850,11.934611 444.894318,11.906801 
	C445.372986,12.003409 445.851654,12.100019 446.693787,12.260468 
	C447.733917,12.617292 448.410583,12.910276 449.369629,13.228212 
	C449.652039,13.253164 449.763458,13.268449 449.927460,13.455877 
	C450.304565,13.873075 450.567810,13.989314 450.881226,13.992024 
	C450.881226,13.992024 451.341522,14.162966 451.712158,14.384319 
	C452.303162,14.835234 452.572510,14.950605 452.890778,14.951794 
	C456.972839,17.000805 461.054901,19.049812 465.609314,21.367468 
	C466.296661,21.860466 466.559479,21.976387 466.870148,21.983881 
	C467.060974,22.061714 467.251831,22.139545 467.732239,22.331343 
	C468.103546,22.693211 468.266479,22.863400 468.689514,22.989006 
	C470.306519,24.046350 471.744598,25.070560 473.635681,26.355431 
	C474.307678,26.853092 474.578278,26.980322 474.900482,26.997784 
	C475.074799,27.078711 475.249115,27.159636 475.683899,27.368492 
	C478.396790,29.567671 480.849274,31.638918 483.612244,33.809494 
	C490.006195,39.921787 496.089661,45.934757 502.427551,52.170769 
	C504.228180,54.878330 505.774384,57.362858 507.646881,59.939774 
	C509.019684,61.676762 510.066162,63.321358 511.400482,65.089767 
	C512.681213,66.982101 513.674072,68.750618 514.876770,70.793533 
	C518.968750,81.104034 523.610596,90.926842 526.505798,101.239990 
	C529.076050,110.395416 530.963257,120.090370 530.998901,129.555283 
	C531.326355,216.510513 531.332153,303.468018 531.042175,390.423553 
	C530.990417,405.929291 527.094910,420.897766 520.600098,435.152649 
	C512.628418,452.648773 502.032410,468.287842 487.535767,480.876282 
	C477.010681,490.015930 465.369659,497.656494 452.275635,503.026764 
	C440.658386,507.791321 428.736206,510.968536 416.329590,512.514832 
	C414.358246,512.760498 412.366913,512.984375 410.384796,512.984863 
	C315.099274,513.008972 219.813354,513.136475 124.528580,512.868958 
	C110.298538,512.828979 96.766609,508.112823 83.780693,502.425110 
	C67.611008,495.342957 53.297073,485.570251 41.460629,472.294708 
	C38.384243,468.844299 34.717224,465.920471 31.040010,462.648682 
	C30.758543,462.542511 30.490505,462.230072 30.339920,461.717255 
	C28.132038,458.099365 26.074743,454.994263 23.985582,451.701111 
	C23.855906,451.256836 23.674648,451.093109 23.315063,450.735535 
	C23.138437,450.265503 23.056696,450.081787 22.933102,449.676575 
	C22.756248,449.170135 22.544258,448.964569 22.168104,448.490509 
	C19.706547,443.385834 17.332157,438.628998 14.920601,433.657288 
	C14.753686,433.165802 14.548300,432.967438 14.213574,432.597198 
	C14.095963,432.188904 14.032058,432.030762 13.931717,431.656067 
	C13.773970,431.159302 13.578709,430.947144 13.281563,430.465790 
	C12.712721,428.997070 12.171816,427.865540 11.576321,426.428192 
	C11.357847,425.742981 11.193963,425.363556 11.030079,424.984161 
	C10.999290,424.555756 10.968501,424.127380 10.908579,423.170410 
	C10.861506,422.277069 10.674542,422.054535 10.318554,421.974243 
	C10.225418,421.546997 10.132282,421.119751 9.984118,420.179138 
	C9.896596,419.375153 9.750233,419.163422 9.418898,418.622803 
	C8.896449,416.108765 8.445104,414.002380 8.014085,411.634338 
	C7.809409,410.923767 7.584407,410.474854 7.320446,409.603302 
	C6.864242,406.758026 6.446997,404.335419 6.049702,401.509644 
	C5.786222,399.086365 5.502794,397.066254 5.217930,394.576080 
	C5.196212,388.773560 5.175930,383.441040 5.503798,377.960999 
	C5.619409,374.508942 5.386870,371.204498 5.168550,367.440857 
	C5.176280,362.350403 5.169791,357.719116 5.468731,352.982727 
	C5.572592,351.552399 5.371023,350.227203 5.181789,348.449677 
	C5.186579,344.374023 5.179035,340.750702 5.428841,337.046021 
	C5.514680,336.269592 5.343169,335.574554 5.184051,334.418671 
	C5.185866,316.006744 5.175291,298.055603 5.509249,279.959747 
	C5.631227,276.839539 5.408673,273.864105 5.196572,270.427246 
	C5.193842,231.003418 5.180660,192.040985 5.502654,152.949219 
	C5.618671,150.511932 5.399513,148.203979 5.191561,145.434235 
	C5.190643,137.636108 5.178519,130.299820 5.398523,122.694611 
	C5.725456,120.984856 5.820261,119.544014 6.010900,117.860703 
	C6.147659,117.449303 6.188585,117.280380 6.482281,117.043793 
	C6.827650,116.345078 6.920248,115.714043 7.055412,114.656113 
	C7.472812,111.519295 7.847646,108.809357 8.477699,106.035263 
	C8.820846,105.343826 8.908772,104.716553 9.045916,103.722275 
	C9.471622,101.933846 9.848111,100.512421 10.480644,99.032303 
	C10.830857,98.343430 10.925028,97.713272 11.067045,96.714890 
	C11.470793,94.915627 11.826694,93.484573 12.473007,91.979218 
	C12.961232,91.251335 13.159048,90.597771 13.515559,89.606293 
	C13.859935,88.545471 14.045615,87.822556 14.485658,87.039948 
	C14.842646,86.347267 14.945271,85.714272 15.119169,84.724365 
	C17.814407,79.203316 20.438374,74.039162 23.361176,68.853493 
	C23.972027,68.214485 24.284042,67.597000 24.738258,66.657524 
	C25.604332,65.173836 26.328205,64.012146 27.353996,62.853783 
	C28.086285,61.932636 28.516655,61.008148 29.054752,59.766708 
	C30.123989,58.243980 31.085501,57.038204 32.378063,55.833889 
	C34.732742,53.567669 36.756367,51.299988 38.975426,48.799236 
	C39.511757,48.065491 39.852654,47.564816 40.483635,46.995564 
	C41.045246,46.276409 41.316776,45.625835 41.750786,44.662323 
	C44.598381,42.128651 47.283501,39.907913 50.303032,37.730606 
	C52.699173,35.529812 54.760899,33.285583 57.048115,30.790316 
	C58.554203,29.678450 59.834805,28.817627 61.443104,27.972105 
	C62.466385,27.342747 63.161961,26.698090 64.090790,25.793072 
	C67.248100,23.967690 70.172157,22.402666 73.421516,20.881081 
	C74.485512,20.325670 75.224197,19.726818 75.962891,19.127966 
	C77.531639,18.309036 79.100395,17.490107 81.269531,16.433769 
	C84.234695,15.278146 86.599480,14.359930 89.294281,13.559161 
	C91.121796,12.864504 92.619270,12.052402 94.454178,11.159504 
	C95.887428,10.729380 96.983246,10.380052 98.228287,10.236465 
	C98.952255,10.037876 99.526985,9.633548 100.474792,9.139102 
	C102.598274,8.686337 104.348671,8.323689 106.235825,8.173756 
	C106.945297,7.995395 107.518021,7.604321 108.349136,7.152909 
	C108.773018,7.030079 108.938507,6.967589 109.326340,6.877369 
	C109.837799,6.731535 110.058617,6.536184 110.629623,6.246124 
	C112.726616,6.153733 114.405136,6.078804 116.230438,6.208161 
	C116.965881,6.015194 117.554535,5.617940 118.376022,5.172778 
	C118.608856,5.124870 119.054169,4.958362 119.492851,4.981710 
	C122.938103,4.722862 125.944679,4.440665 128.951248,4.158468 
	C221.669296,4.170992 314.387360,4.183517 407.581970,4.203602 
	C412.075623,4.789403 416.092712,5.367644 420.515381,5.918447 
	C422.344360,5.997397 423.767761,6.103785 425.620605,6.231187 
	C426.796448,6.519716 427.542877,6.787229 428.599182,7.031190 
	C428.909027,7.007638 429.360901,7.166977 429.726318,7.381418 
	C430.314026,7.821447 430.582062,7.912453 430.895813,7.868877 
	C431.683136,7.964323 432.470459,8.059767 433.656952,8.171619 
	C435.466522,8.716885 436.876892,9.245742 438.614502,9.831876 
	C439.714569,10.028214 440.487396,10.167274 441.639984,10.411274 
M340.504883,436.486542 
	C340.504883,436.486542 340.608063,436.365509 340.991425,436.145996 
	C341.220703,435.932617 341.339600,435.669403 341.022949,435.273468 
	C341.022949,435.273468 341.348267,435.336578 341.896362,435.040985 
	C342.400177,434.150574 342.904022,433.260162 343.254791,432.186462 
	C343.254791,432.186462 343.452362,432.320648 343.981354,431.917450 
	C345.582184,425.888947 348.435852,419.886932 348.564056,413.827271 
	C349.081726,389.356293 348.753174,364.867554 348.758301,340.385376 
	C348.758698,338.476929 348.922974,336.568542 349.018188,334.506317 
	C365.147827,334.506317 380.629486,334.571503 396.110321,334.486481 
	C409.403320,334.413513 422.695312,334.168823 436.818939,334.005890 
	C441.321259,332.474304 445.823608,330.942719 449.997375,329.075409 
	C449.997375,329.075409 450.325409,329.418427 450.892700,329.281586 
	C451.315277,328.905029 451.737823,328.528473 452.046967,328.045319 
	C452.046967,328.045319 452.117371,328.184113 452.639435,328.067749 
	C452.863617,327.805420 453.087799,327.543060 453.096191,327.190460 
	C453.096191,327.190460 453.279480,327.335785 453.757263,327.210358 
	C454.075134,327.063446 454.287933,326.823425 454.420654,326.356079 
	C454.420654,326.356079 454.478546,326.479706 454.997803,326.277527 
	C455.343231,325.857452 455.688629,325.437347 455.998749,324.999542 
	C455.998749,324.999542 456.017670,325.034302 456.551697,324.816559 
	C456.850525,324.337494 457.149323,323.858398 457.356049,322.991272 
	C457.356049,322.991272 457.420227,323.383942 457.879150,323.165924 
	C458.032867,322.870972 458.186554,322.576050 458.196320,322.161224 
	C458.196320,322.161224 458.278076,322.329712 458.853668,322.043793 
	C459.363037,321.119690 459.872406,320.195618 460.217346,319.083130 
	C460.217346,319.083130 460.329224,319.306732 460.772064,319.037537 
	C460.874512,318.714264 460.976929,318.390991 461.000000,318.001251 
	C461.000000,318.001251 461.080566,318.064362 461.645447,317.652618 
	C462.904938,312.206940 465.071716,306.790863 465.250580,301.309906 
	C465.749908,286.007111 465.476013,270.677277 465.413391,255.358505 
	C465.347412,239.220520 465.172791,223.082977 465.195648,206.174927 
	C464.809998,204.748703 464.424347,203.322479 464.025146,201.427155 
	C464.025146,201.427155 463.923218,200.969070 464.144348,200.208054 
	C463.809326,199.260696 463.474335,198.313339 463.307129,196.684586 
	C460.708832,189.973877 456.722443,184.408051 449.889099,180.364883 
	C449.294647,180.156891 448.700226,179.948914 448.098083,179.854401 
	C448.098083,179.854401 448.201782,179.807739 447.851044,179.295624 
	C447.264740,179.119370 446.678467,178.943115 446.078491,178.868744 
	C446.078491,178.868744 446.175598,178.835052 445.745789,178.311905 
	C444.878662,178.092911 444.011536,177.873901 443.090668,177.768188 
	C443.090668,177.768188 443.215637,177.758163 442.720825,177.242950 
	C440.840027,176.784515 438.959259,176.326096 436.804626,175.465088 
	C436.570831,175.232834 436.300964,175.055405 435.384033,174.368942 
	C433.569855,174.247360 431.755798,174.021622 429.941528,174.019928 
	C404.952118,173.996582 379.962128,173.921219 354.973846,174.089188 
	C351.013550,174.115814 349.881378,172.976654 349.912231,169.022018 
	C350.087555,146.532913 350.023743,124.041626 349.941956,101.551437 
	C349.935211,99.698326 349.188660,97.847908 348.376709,95.404602 
	C347.989532,94.052765 347.602386,92.700928 347.430267,91.306793 
	C347.430267,91.306793 347.448212,91.088356 347.455200,90.292343 
	C346.756134,88.434921 346.057068,86.577499 345.415466,84.804741 
	C345.415466,84.804741 345.451996,84.709160 345.371918,84.118690 
	C345.032288,83.650047 344.692688,83.181404 344.266998,82.938515 
	C344.266998,82.938515 344.408600,82.742752 344.300598,82.151230 
	C343.937378,81.695755 343.574158,81.240280 343.161835,80.887466 
	C343.161835,80.887466 343.271790,80.858139 343.168030,80.270538 
	C342.790955,79.835136 342.413879,79.399734 341.836823,78.326714 
	C339.527710,75.977020 337.218628,73.627319 334.685669,70.674240 
	C334.105560,70.459137 333.525452,70.244034 332.991699,69.996040 
	C332.991699,69.996040 332.984955,70.052452 332.726135,69.562454 
	C332.385315,69.457214 332.044464,69.351982 331.860168,69.223946 
	C331.860168,69.223946 331.804962,69.372177 331.629883,68.700836 
	C330.999176,68.570312 330.368439,68.439789 329.848358,68.250511 
	C329.848358,68.250511 329.816284,68.371582 329.609192,67.644531 
	C325.040771,66.428551 320.482574,64.205826 315.902283,64.159363 
	C285.300415,63.848976 254.693832,63.983841 224.088974,64.056778 
	C222.407379,64.060783 220.727539,64.803192 218.603806,65.539139 
	C218.078293,65.716087 217.552765,65.893028 216.257538,66.001343 
	C199.685623,70.092529 189.867828,82.542061 189.846176,99.497643 
	C189.816010,123.141861 189.788055,146.786072 189.759598,170.430298 
	C189.757645,172.049652 189.759338,173.668991 189.759338,175.835800 
	C187.311707,175.835800 185.356567,175.834732 183.401413,175.835968 
	C157.259323,175.852432 131.117172,175.845459 104.975243,175.920410 
	C102.169716,175.928452 99.301895,176.125015 96.571632,176.726959 
	C83.749939,179.553848 76.479416,188.293259 71.685410,200.257431 
	C71.711899,200.847321 71.738388,201.437210 71.995628,202.024445 
	C71.995628,202.024445 72.220253,201.971558 71.929253,202.600052 
	C71.811188,203.045212 71.693123,203.490356 70.864128,204.243683 
	C70.574280,205.310852 70.032616,206.377686 70.031189,207.445236 
	C69.988579,239.303101 69.982590,271.161072 70.063850,303.018829 
	C70.067085,304.285889 70.980003,305.550690 71.715126,306.943115 
	C71.715126,306.943115 71.977852,307.029907 71.923210,307.561523 
	C71.961800,308.040955 72.000389,308.520386 72.203690,309.718506 
	C74.809052,319.525238 80.361275,326.905029 90.310944,331.641479 
	C94.151794,332.492737 97.988754,334.060272 101.834122,334.081207 
	C130.860916,334.239258 159.889359,334.093445 188.957687,334.094910 
	C188.957687,334.094910 189.022964,334.084412 189.463638,334.773590 
	C189.572083,360.349976 189.671982,385.926392 189.804504,411.502655 
	C189.815613,413.644226 190.046448,415.784637 190.108231,418.587067 
	C190.260254,419.438293 190.412277,420.289551 190.599487,421.895416 
	C191.258377,423.689697 191.917267,425.484009 192.499268,427.307861 
	C192.499268,427.307861 192.477310,427.387268 192.540833,427.954498 
	C192.718460,428.293854 192.896088,428.633209 193.117157,429.640930 
	C194.082336,431.085388 195.047531,432.529846 195.996475,433.997253 
	C195.996475,433.997253 196.022995,433.990662 196.127289,434.580719 
	C196.690338,435.117188 197.253403,435.653656 197.999268,436.070251 
	C197.999268,436.070251 197.800430,436.160828 197.943253,436.664337 
	C198.223221,436.855621 198.503204,437.046906 198.953476,437.014709 
	C198.953476,437.014709 198.759293,437.217804 198.908905,437.711700 
	C199.186172,437.898712 199.463425,438.085724 199.971283,437.990356 
	C199.971283,437.990356 199.730240,438.265259 199.909439,438.749573 
	C200.200684,438.916016 200.491943,439.082489 200.930618,439.043396 
	C200.930618,439.043396 200.749680,439.220154 200.981873,439.780609 
	C201.637024,440.225525 202.292160,440.670441 203.192459,441.541229 
	C203.426941,441.790466 203.713699,441.938232 204.412354,442.555725 
	C210.243912,446.495728 216.720932,448.292633 223.714951,448.286407 
	C254.665710,448.258820 285.618378,448.371429 316.565155,448.000610 
	C321.128082,447.945953 325.663208,445.570435 329.957214,444.139221 
	C329.957214,444.139221 330.200256,444.290466 330.793854,444.234985 
	C331.257874,443.897064 331.721893,443.559143 332.015778,443.045166 
	C332.015778,443.045166 332.158875,443.243805 332.758972,443.176361 
	C333.208984,442.810974 333.658966,442.445587 334.549133,441.948822 
	C334.842194,441.813721 335.050690,441.597229 335.681335,441.168060 
	C335.899506,440.907715 336.117676,440.647369 336.308838,440.259125 
	C336.308838,440.259125 336.407196,440.345245 336.828674,440.227570 
	C337.102081,440.083954 337.284485,439.864655 337.473938,439.468201 
	C337.473938,439.468201 337.581604,439.376984 337.948273,439.217804 
	C338.178253,439.057526 338.324738,438.840820 338.476440,438.465424 
	C338.476440,438.465424 338.583435,438.382477 338.949371,438.241852 
	C339.180573,438.090912 339.326904,437.880859 339.512543,437.500336 
	C339.512543,437.500336 339.626343,437.378448 339.980530,437.230042 
	C340.203217,437.076843 340.341980,436.867889 340.504883,436.486542 
z"/>
<path fill="#F2EAD8" opacity="1.000000" stroke="none" 
	d="
M11.630913,426.734009 
	C12.171816,427.865540 12.712721,428.997070 13.260180,430.706207 
	C13.380254,431.623383 13.614059,431.819672 13.968152,431.872650 
	C14.032058,432.030762 14.095963,432.188904 14.211242,432.830750 
	C14.385015,433.636597 14.616731,433.822510 14.957762,433.872192 
	C17.332157,438.628998 19.706547,443.385834 22.171684,448.730408 
	C22.390583,449.645844 22.628092,449.839142 22.974957,449.898071 
	C23.056696,450.081787 23.138437,450.265503 22.943275,450.726044 
	C22.420353,451.000977 22.174335,450.999084 21.928318,450.997223 
	C21.190844,450.435760 20.111191,450.031769 19.769035,449.288361 
	C16.479450,442.141022 13.314146,434.936493 10.476217,427.321716 
	C11.103080,426.841400 11.366998,426.787689 11.630913,426.734009 
z"/>
<path fill="#F2EAD8" opacity="1.000000" stroke="none" 
	d="
M24.017448,451.889191 
	C26.074743,454.994263 28.132038,458.099365 30.205006,461.561768 
	C24.850367,461.180420 24.939289,455.628235 22.389488,452.325745 
	C23.142036,451.943848 23.579742,451.916534 24.017448,451.889191 
z"/>
<path fill="#00000000" opacity="1.000000" stroke="none" 
	d="
M6.029752,401.912811 
	C6.446997,404.335419 6.864242,406.758026 7.035208,409.670624 
	C6.525163,410.436340 6.261396,410.712067 5.997632,410.987793 
	C5.314666,408.290192 4.631697,405.592590 3.883739,402.456482 
	C3.818750,402.018005 3.940112,401.987122 4.329845,401.988220 
	C5.156302,401.963806 5.593027,401.938324 6.029752,401.912811 
z"/>
<path fill="#00000000" opacity="1.000000" stroke="none" 
	d="
M7.993760,411.896027 
	C8.445104,414.002380 8.896449,416.108765 9.047441,418.608704 
	C8.501576,419.001953 8.256063,419.001587 8.010549,419.001221 
	C7.350988,416.890564 6.691429,414.779877 6.373744,412.314270 
	C7.141666,411.938232 7.567714,411.917114 7.993760,411.896027 
z"/>
<path fill="#F3F2F0" opacity="1.000000" stroke="none" 
	d="
M38.989136,473.416992 
	C40.239590,474.166077 41.493530,475.286865 42.856659,476.707825 
	C41.641445,475.934906 40.317036,474.861786 38.989136,473.416992 
z"/>
<path fill="#00000000" opacity="1.000000" stroke="none" 
	d="
M8.014086,411.634338 
	C7.567714,411.917114 7.141666,411.938232 6.396671,411.955475 
	C6.077723,411.951630 6.028464,411.470612 6.013046,411.229187 
	C6.261396,410.712067 6.525163,410.436340 7.074167,410.093292 
	C7.584407,410.474854 7.809409,410.923767 8.014086,411.634338 
z"/>
<path fill="#00000000" opacity="1.000000" stroke="none" 
	d="
M11.576323,426.428192 
	C11.366998,426.787689 11.103080,426.841400 10.438478,426.943054 
	C10.188923,426.418640 10.340053,425.846222 10.760631,425.128998 
	C11.193963,425.363556 11.357847,425.742981 11.576323,426.428192 
z"/>
<path fill="#00000000" opacity="1.000000" stroke="none" 
	d="
M23.985580,451.701111 
	C23.579742,451.916534 23.142036,451.943848 22.375723,451.969910 
	C22.047115,451.968597 21.995352,451.482117 21.961836,451.239685 
	C22.174335,450.999084 22.420353,451.000977 23.038158,451.012329 
	C23.674648,451.093109 23.855906,451.256836 23.985580,451.701111 
z"/>
<path fill="#00000000" opacity="1.000000" stroke="none" 
	d="
M8.021796,419.241882 
	C8.256063,419.001587 8.501576,419.001953 9.118544,419.016418 
	C9.750233,419.163422 9.896596,419.375153 9.887939,419.864807 
	C9.846792,420.063873 9.472775,420.174713 9.028006,420.103638 
	C8.409209,420.009583 8.235184,419.986572 8.061159,419.963593 
	C8.061159,419.963593 8.033043,419.482574 8.021796,419.241882 
z"/>
<path fill="#F3F3F3" opacity="1.000000" stroke="none" 
	d="
M72.106110,500.190979 
	C72.276787,500.136780 72.559631,500.325043 72.985458,500.729065 
	C72.825050,500.774384 72.521667,500.603912 72.106110,500.190979 
z"/>
<path fill="#F3F3F3" opacity="1.000000" stroke="none" 
	d="
M59.107929,491.291504 
	C59.342972,491.115540 59.618992,491.274170 59.922421,491.780762 
	C59.695568,491.930542 59.428596,491.763000 59.107929,491.291504 
z"/>
<path fill="#F3F2F0" opacity="1.000000" stroke="none" 
	d="
M46.087170,480.265930 
	C46.331692,480.098145 46.597187,480.265472 46.856926,480.787476 
	C46.621418,480.920502 46.373745,480.740143 46.087170,480.265930 
z"/>
<path fill="#00000000" opacity="1.000000" stroke="none" 
	d="
M10.214777,421.947266 
	C10.674542,422.054535 10.861506,422.277069 10.802485,422.864929 
	C10.725523,423.088013 10.353072,423.099487 10.159338,422.806885 
	C9.946732,422.340271 9.927857,422.166260 9.908982,421.992249 
	C9.908982,421.992249 10.111000,421.920258 10.214777,421.947266 
z"/>
<path fill="#00000000" opacity="1.000000" stroke="none" 
	d="
M8.110916,420.153778 
	C8.235184,419.986572 8.409209,420.009583 8.833457,420.117615 
	C8.776010,420.249725 8.468342,420.296844 8.110916,420.153778 
z"/>
<path fill="#F2EAD8" opacity="1.000000" stroke="none" 
	d="
M9.743317,422.089569 
	C9.927857,422.166260 9.946732,422.340271 9.975454,422.776855 
	C9.849421,422.755280 9.713535,422.471069 9.743317,422.089569 
z"/>
<path fill="#F2EAD8" opacity="1.000000" stroke="none" 
	d="
M8.453081,424.535706 
	C8.415172,424.475342 8.490991,424.596069 8.453081,424.535706 
z"/>
<path fill="#00000000" opacity="1.000000" stroke="none" 
	d="
M14.231296,87.099632 
	C14.045615,87.822556 13.859935,88.545471 13.276049,89.704788 
	C12.646092,90.778633 12.414343,91.416084 12.182595,92.053528 
	C11.826694,93.484573 11.470793,94.915627 10.813104,96.869186 
	C10.415744,97.958138 10.320172,98.524574 10.224600,99.091003 
	C9.848111,100.512421 9.471622,101.933846 8.794275,103.878273 
	C8.403105,104.967331 8.312792,105.533379 8.222479,106.099426 
	C7.847646,108.809357 7.472812,111.519295 6.802620,114.814713 
	C6.414678,115.970619 6.322094,116.541046 6.229510,117.111465 
	C6.188585,117.280380 6.147659,117.449303 5.764125,117.937592 
	C4.962798,118.502525 4.504079,118.748108 4.045362,118.993683 
	C3.713887,118.906136 3.449313,118.722305 3.143173,118.222137 
	C5.932596,107.188858 7.861740,95.987175 11.998585,85.670784 
	C16.205210,75.180382 22.475832,65.498505 28.126854,55.625256 
	C29.067444,53.981892 31.458536,53.168732 33.589302,51.986168 
	C33.999252,52.000401 34.098396,52.098297 33.943047,52.373295 
	C33.207470,53.709671 32.627243,54.771049 32.047012,55.832428 
	C31.085501,57.038204 30.123989,58.243980 28.777138,59.881081 
	C27.945227,61.158417 27.498652,62.004433 27.052078,62.850449 
	C26.328205,64.012146 25.604332,65.173836 24.477177,66.717697 
	C23.736708,67.691582 23.399523,68.283295 23.062340,68.875015 
	C20.438374,74.039162 17.814407,79.203316 14.859987,84.876602 
	C14.430120,85.957031 14.330708,86.528336 14.231296,87.099632 
z"/>
<path fill="#00000000" opacity="1.000000" stroke="none" 
	d="
M116.083649,6.003876 
	C114.405136,6.078804 112.726616,6.153733 110.389702,6.233803 
	C109.397873,6.343983 109.188766,6.566035 109.103989,6.905098 
	C108.938507,6.967589 108.773018,7.030079 108.058258,7.104720 
	C107.039017,7.398262 106.569046,7.679653 106.099068,7.961043 
	C104.348671,8.323689 102.598274,8.686337 100.175880,9.088322 
	C99.028938,9.428682 98.554001,9.729703 98.079056,10.030725 
	C96.983246,10.380052 95.887428,10.729380 94.104065,11.119097 
	C91.932419,11.920229 90.448341,12.680972 88.964256,13.441715 
	C86.599480,14.359930 84.234695,15.278146 81.492035,16.191349 
	C82.099945,14.997599 82.846832,13.237467 84.109001,12.709736 
	C95.064964,8.128870 106.289268,4.393763 118.591949,3.355460 
	C119.027740,4.113532 119.040962,4.535946 119.054169,4.958362 
	C119.054169,4.958362 118.608856,5.124870 118.073914,5.122456 
	C117.053864,5.414653 116.568756,5.709265 116.083649,6.003876 
z"/>
<path fill="#00000000" opacity="1.000000" stroke="none" 
	d="
M40.193550,47.064140 
	C39.852654,47.564816 39.511757,48.065491 38.668671,48.824203 
	C36.810455,50.087597 35.454426,51.092949 34.098396,52.098297 
	C34.098396,52.098297 33.999252,52.000401 33.948048,51.950981 
	C37.106068,45.069084 40.707851,38.632023 49.435619,37.093670 
	C49.877201,37.273880 49.968620,37.687176 49.968620,37.687176 
	C47.283501,39.907913 44.598381,42.128651 41.480103,44.733810 
	C40.762478,45.766869 40.478016,46.415504 40.193550,47.064140 
z"/>
<path fill="#00000000" opacity="1.000000" stroke="none" 
	d="
M73.096214,20.837643 
	C70.172157,22.402666 67.248100,23.967690 63.799141,25.775982 
	C62.884457,26.057554 62.494671,26.095860 62.060234,26.079342 
	C62.015583,26.024519 61.924484,25.916361 61.924484,25.916361 
	C65.712746,23.621805 69.500999,21.327250 73.566055,19.285242 
	C73.593979,19.971075 73.345100,20.404360 73.096214,20.837643 
z"/>
<path fill="#00000000" opacity="1.000000" stroke="none" 
	d="
M119.492859,4.981710 
	C119.040962,4.535946 119.027740,4.113532 119.019287,3.374640 
	C121.709305,3.028737 124.394569,2.999310 127.526550,2.959024 
	C128.242844,3.181061 128.512405,3.413956 128.866608,3.902660 
	C125.944679,4.440665 122.938103,4.722862 119.492859,4.981710 
z"/>
<path fill="#00000000" opacity="1.000000" stroke="none" 
	d="
M50.303032,37.730606 
	C49.968620,37.687176 49.877201,37.273880 49.808029,37.072742 
	C51.402225,35.124168 53.065594,33.376732 55.191299,31.338428 
	C56.043301,31.045494 56.432964,31.043427 56.822628,31.041359 
	C54.760899,33.285583 52.699173,35.529812 50.303032,37.730606 
z"/>
<path fill="#00000000" opacity="1.000000" stroke="none" 
	d="
M57.048115,30.790314 
	C56.432964,31.043427 56.043301,31.045494 55.360844,31.060322 
	C55.694912,27.682686 57.806774,26.073357 61.552303,25.946690 
	C61.924484,25.916361 62.015583,26.024519 61.929523,26.305876 
	C61.600777,27.043756 61.358089,27.500278 61.115402,27.956802 
	C59.834805,28.817627 58.554203,29.678450 57.048115,30.790314 
z"/>
<path fill="#00000000" opacity="1.000000" stroke="none" 
	d="
M73.421516,20.881083 
	C73.345100,20.404360 73.593979,19.971075 73.951790,19.308750 
	C74.486488,19.052336 74.912262,19.024961 75.650459,19.062777 
	C75.224197,19.726818 74.485512,20.325670 73.421516,20.881083 
z"/>
<path fill="#00000000" opacity="1.000000" stroke="none" 
	d="
M5.166393,122.963516 
	C5.178519,130.299820 5.190643,137.636108 5.115440,145.879593 
	C5.074568,148.884033 5.121023,150.981293 5.167477,153.078552 
	C5.180660,192.040985 5.193842,231.003418 5.118608,270.883911 
	C5.075032,274.569489 5.119874,277.336975 5.164716,280.104492 
	C5.175291,298.055603 5.185866,316.006744 5.115127,334.791443 
	C5.079704,336.125824 5.125597,336.626587 5.171491,337.127380 
	C5.179035,340.750702 5.186579,344.374023 5.108264,348.864929 
	C5.069370,350.850952 5.116336,351.969421 5.163301,353.087860 
	C5.169791,357.719116 5.176280,362.350403 5.098098,367.901001 
	C5.060834,371.916443 5.108241,375.012482 5.155647,378.108551 
	C5.175930,383.441040 5.196212,388.773560 4.910289,394.559235 
	C4.399502,395.007477 4.194921,395.002533 3.990337,394.997559 
	C3.667954,393.433075 3.064274,391.868744 3.063457,390.304077 
	C3.017531,302.380676 3.020258,214.457245 3.036573,126.533821 
	C3.036817,125.220497 3.267888,123.907211 3.824311,122.515640 
	C4.560390,122.612755 4.863390,122.788139 5.166393,122.963516 
z"/>
<path fill="#00000000" opacity="1.000000" stroke="none" 
	d="
M3.987236,395.434998 
	C4.194921,395.002533 4.399502,395.007477 4.911724,395.029266 
	C5.502794,397.066254 5.786222,399.086365 6.049701,401.509644 
	C5.593027,401.938324 5.156302,401.963806 4.392459,401.988892 
	C4.038271,399.949768 4.011202,397.911072 3.987236,395.434998 
z"/>
<path fill="#00000000" opacity="1.000000" stroke="none" 
	d="
M5.398521,122.694611 
	C4.863390,122.788139 4.560390,122.612755 4.110843,122.212357 
	C3.980191,121.238983 3.996086,120.490623 4.028671,119.367981 
	C4.504079,118.748108 4.962798,118.502525 5.668292,118.180061 
	C5.820261,119.544014 5.725456,120.984856 5.398521,122.694611 
z"/>
<path fill="#00000000" opacity="1.000000" stroke="none" 
	d="
M466.777893,21.768570 
	C466.559479,21.976387 466.296661,21.860466 465.956909,21.456228 
	C466.173187,21.194792 466.457672,21.287098 466.777893,21.768570 
z"/>
<path fill="#00000000" opacity="1.000000" stroke="none" 
	d="
M452.792389,14.735853 
	C452.572510,14.950605 452.303162,14.835234 451.954773,14.421732 
	C452.172272,14.158894 452.461334,14.252935 452.792389,14.735853 
z"/>
<path fill="#00000000" opacity="1.000000" stroke="none" 
	d="
M450.794434,13.777592 
	C450.567810,13.989314 450.304565,13.873075 449.983582,13.452450 
	C450.215546,13.190070 450.492828,13.290592 450.794434,13.777592 
z"/>
<path fill="#00000000" opacity="1.000000" stroke="none" 
	d="
M474.807800,26.773445 
	C474.578278,26.980322 474.307678,26.853092 473.963806,26.425529 
	C474.194061,26.164122 474.486115,26.268835 474.807800,26.773445 
z"/>
<path fill="#00000000" opacity="1.000000" stroke="none" 
	d="
M430.787048,7.670852 
	C430.582062,7.912453 430.314026,7.821447 429.962860,7.419336 
	C430.158142,7.163435 430.439575,7.240107 430.787048,7.670852 
z"/>
<path fill="#00000000" opacity="1.000000" stroke="none" 
	d="
M444.790863,11.701962 
	C444.577850,11.934611 444.309937,11.833661 443.964569,11.423191 
	C444.169983,11.166400 444.452942,11.251297 444.790863,11.701962 
z"/>
<path fill="#21201F" opacity="1.000000" stroke="none" 
	d="
M335.174622,441.299286 
	C335.050690,441.597229 334.842194,441.813721 334.010406,442.010406 
	C333.034088,442.462585 332.596466,442.853210 332.158875,443.243805 
	C332.158875,443.243805 332.015778,443.045166 331.775146,443.086365 
	C331.089752,443.515167 330.644989,443.902802 330.200256,444.290466 
	C330.200256,444.290466 329.957214,444.139221 329.677124,444.127625 
	C319.961670,447.398560 310.181061,447.089294 300.395691,447.046539 
	C279.446411,446.954987 258.496399,446.996277 237.546768,447.028198 
	C226.614136,447.044861 215.551178,448.020508 205.528915,442.103943 
	C205.146606,441.878235 204.549683,442.016083 204.052750,441.984558 
	C203.713699,441.938232 203.426941,441.790466 202.970703,441.030731 
	C202.082520,440.086884 201.416092,439.653534 200.749664,439.220154 
	C200.749680,439.220154 200.930618,439.043396 200.805054,438.874695 
	C200.363068,438.559082 200.046661,438.412170 199.730240,438.265259 
	C199.730240,438.265259 199.971283,437.990356 199.823608,437.857208 
	C199.370377,437.555298 199.064835,437.386566 198.759293,437.217804 
	C198.759293,437.217804 198.953476,437.014709 198.826538,436.855988 
	C198.399887,436.518463 198.100159,436.339661 197.800415,436.160828 
	C197.800430,436.160828 197.999268,436.070251 197.925842,435.797089 
	C197.242630,435.012848 196.632812,434.501740 196.022995,433.990662 
	C196.022995,433.990662 195.996475,433.997253 196.008850,433.632965 
	C195.345169,431.851776 194.669128,430.434845 193.957642,428.687561 
	C193.440552,428.033875 192.958939,427.710571 192.477310,427.387268 
	C192.477310,427.387268 192.499268,427.307861 192.671005,426.902374 
	C192.083267,424.711517 191.323792,422.926147 190.564301,421.140778 
	C190.412277,420.289551 190.260254,419.438293 190.404266,417.945251 
	C190.796249,390.510162 190.912399,363.716919 190.904953,336.923676 
	C190.904694,335.977081 189.678040,335.030823 189.022964,334.084412 
	C189.022964,334.084412 188.957687,334.094910 188.672668,333.753235 
	C187.244965,333.274567 186.105148,333.051208 184.959167,333.013153 
	C153.247818,331.960022 121.449295,335.222595 89.799881,331.084076 
	C80.361275,326.905029 74.809052,319.525238 72.409744,309.058380 
	C72.743393,307.587799 72.982155,306.777405 72.982590,305.966888 
	C73.000648,272.566620 73.005814,239.166321 72.963905,205.766098 
	C72.962318,204.500946 72.479057,203.236389 72.220253,201.971558 
	C72.220253,201.971558 71.995628,202.024445 72.029984,201.723022 
	C72.105423,200.976639 72.146500,200.531647 72.187576,200.086670 
	C76.479416,188.293259 83.749939,179.553848 96.571632,176.726959 
	C99.301895,176.125015 102.169716,175.928452 104.975243,175.920410 
	C131.117172,175.845459 157.259323,175.852432 183.401413,175.835968 
	C185.356567,175.834732 187.311707,175.835800 189.759338,175.835800 
	C189.759338,173.668991 189.757645,172.049652 189.759598,170.430298 
	C189.788055,146.786072 189.816010,123.141861 189.846176,99.497643 
	C189.867828,82.542061 199.685623,70.092529 216.942535,66.320770 
	C218.274246,66.758850 218.920868,66.980942 219.567642,66.981300 
	C251.486465,66.999336 283.405334,67.009369 315.324097,66.957535 
	C316.551025,66.955536 317.776947,66.337906 319.405762,65.968605 
	C323.144226,66.743904 326.480255,67.557747 329.816284,68.371582 
	C329.816284,68.371582 329.848358,68.250511 329.963135,68.533371 
	C330.653625,69.001549 331.229279,69.186867 331.804962,69.372177 
	C331.804962,69.372177 331.860168,69.223946 331.905884,69.480949 
	C332.296082,69.842789 332.640503,69.947624 332.984955,70.052452 
	C332.984955,70.052452 332.991699,69.996040 333.138062,70.261826 
	C333.826141,70.777618 334.367828,71.027618 334.909515,71.277618 
	C337.218628,73.627319 339.527710,75.977020 341.949524,78.962189 
	C342.465424,80.017822 342.868591,80.437981 343.271790,80.858139 
	C343.271790,80.858139 343.161835,80.887466 343.144958,81.177536 
	C343.554901,81.892654 343.981750,82.317703 344.408600,82.742752 
	C344.408600,82.742752 344.266998,82.938515 344.223236,83.171356 
	C344.603638,83.839188 345.027832,84.274170 345.451996,84.709160 
	C345.451996,84.709160 345.415466,84.804741 345.301544,85.156876 
	C345.941162,87.368797 346.694702,89.228577 347.448212,91.088356 
	C347.448212,91.088356 347.430267,91.306793 347.259399,91.844467 
	C347.061981,116.699501 346.972290,141.017151 347.084381,165.333862 
	C347.099304,168.567917 348.138397,171.797256 348.791504,174.974579 
	C348.879852,174.920380 349.084900,174.950592 349.025574,175.186920 
	C348.966278,175.423233 349.028015,175.906601 349.297791,176.227112 
	C350.206116,176.695755 350.843536,176.968369 351.483337,176.974136 
	C382.060638,177.250000 412.638153,177.502777 443.215637,177.758163 
	C443.215637,177.758163 443.090668,177.768188 443.248413,178.055328 
	C444.329315,178.506683 445.252472,178.670868 446.175598,178.835052 
	C446.175598,178.835052 446.078491,178.868744 446.217590,179.122849 
	C446.971741,179.520538 447.586761,179.664139 448.201782,179.807739 
	C448.201782,179.807739 448.098083,179.854401 448.235962,180.113129 
	C449.005676,180.540146 449.637482,180.708420 450.269287,180.876709 
	C456.722443,184.408051 460.708832,189.973877 463.189972,197.419525 
	C463.356262,199.092667 463.639740,200.030869 463.923218,200.969070 
	C463.923218,200.969070 464.025146,201.427155 464.018555,202.137115 
	C464.014679,236.900406 464.017365,270.953735 464.014893,305.410278 
	C463.033386,309.897125 462.056976,313.980743 461.080566,318.064362 
	C461.080566,318.064362 461.000000,318.001251 460.795837,318.152405 
	C460.504181,318.637939 460.416687,318.972321 460.329224,319.306732 
	C460.329224,319.306732 460.217346,319.083130 459.965485,319.231903 
	C459.235107,320.363678 458.756592,321.346710 458.278076,322.329712 
	C458.278076,322.329712 458.196320,322.161224 457.974304,322.254700 
	C457.641632,322.693420 457.530914,323.038696 457.420227,323.383942 
	C457.420227,323.383942 457.356049,322.991272 457.074036,323.184998 
	C456.533905,323.930573 456.275787,324.482452 456.017670,325.034302 
	C456.017670,325.034302 455.998749,324.999542 455.690765,325.032410 
	C455.081390,325.536743 454.779968,326.008240 454.478577,326.479736 
	C454.478546,326.479706 454.420654,326.356079 454.115540,326.371155 
	C453.633423,326.702759 453.456451,327.019287 453.279480,327.335785 
	C453.279480,327.335785 453.096191,327.190460 452.920074,327.247009 
	C452.535095,327.597046 452.326233,327.890564 452.117371,328.184113 
	C452.117371,328.184113 452.046967,328.045319 451.769958,328.078644 
	C451.103729,328.547455 450.714569,328.982941 450.325409,329.418427 
	C450.325409,329.418427 449.997375,329.075409 449.775208,329.143555 
	C441.815613,332.644623 433.682281,333.153076 425.321228,333.081512 
	C401.438660,332.877045 377.553131,332.986633 353.669006,333.051422 
	C351.781830,333.056519 349.896301,333.670044 347.729004,334.306305 
	C347.317413,340.255981 347.372467,345.911591 347.024597,351.542328 
	C345.362274,378.448425 350.933899,405.675385 343.452362,432.320648 
	C343.452362,432.320648 343.254791,432.186462 342.998657,432.308289 
	C342.277740,433.398956 341.813019,434.367767 341.348267,435.336578 
	C341.348267,435.336578 341.022949,435.273468 340.903870,435.327881 
	C340.725861,435.710052 340.666962,436.037781 340.608063,436.365509 
	C340.608063,436.365509 340.504883,436.486542 340.182861,436.472717 
	C339.782654,436.765411 339.704498,437.071930 339.626343,437.378448 
	C339.626343,437.378448 339.512543,437.500336 339.183105,437.482300 
	C338.763550,437.770325 338.673492,438.076416 338.583435,438.382477 
	C338.583435,438.382477 338.476440,438.465424 338.160889,438.457520 
	C337.757416,438.758728 337.669495,439.067871 337.581604,439.376984 
	C337.581604,439.376984 337.473938,439.468201 337.154053,439.455017 
	C336.691833,439.742950 336.549530,440.044098 336.407227,440.345245 
	C336.407196,440.345245 336.308838,440.259125 336.036377,440.326019 
	C335.567474,440.695038 335.371063,440.997162 335.174622,441.299286 
M208.938828,329.737610 
	C209.283997,329.850891 209.629166,329.964172 209.982712,330.005341 
	C209.982712,330.005341 209.922668,330.046173 210.276123,330.540588 
	C210.840637,330.730713 211.405151,330.920807 211.971756,331.030457 
	C211.971756,331.030457 211.900146,331.067139 212.382751,331.593018 
	C213.522125,331.882324 214.661499,332.171631 215.902039,332.362549 
	C215.902039,332.362549 215.775238,332.300537 216.271072,332.845001 
	C217.483322,333.005310 218.695587,333.165619 219.967834,333.196411 
	C219.967834,333.196411 219.827148,333.172394 220.478119,333.730103 
	C221.306046,333.809326 222.133865,333.956482 222.961929,333.958038 
	C253.433151,334.015167 283.904388,334.071930 314.375641,334.062714 
	C315.786896,334.062286 317.197968,333.454559 319.345276,333.388428 
	C333.895386,331.034821 344.204132,319.515717 345.070557,304.559753 
	C345.140503,304.407715 345.210480,304.255676 345.686432,304.081573 
	C345.686432,304.081573 346.087463,304.014740 346.640228,303.390930 
	C346.757751,302.743347 346.977661,302.095825 346.978088,301.448181 
	C346.996979,272.177612 347.009613,242.907043 346.952454,213.636612 
	C346.950104,212.430527 346.271576,211.225754 345.503235,209.989365 
	C345.503235,209.989365 345.099976,209.929169 344.946716,209.190079 
	C344.667206,208.259766 344.387726,207.329453 344.255859,205.661240 
	C341.158020,189.879318 329.336517,180.008224 312.804718,179.921082 
	C283.713715,179.767731 254.621399,179.846191 225.529678,179.874603 
	C223.384689,179.876709 221.197800,180.054916 219.102036,180.493530 
	C204.067627,183.640045 196.265686,193.608047 192.589417,208.520462 
	C192.393692,209.644196 192.028198,210.767746 192.027008,211.891693 
	C191.996002,241.222015 191.987137,270.552399 192.053131,299.882599 
	C192.056183,301.236633 192.788956,302.589050 193.638443,304.563934 
	C194.651184,314.274323 197.926987,322.721954 207.093323,328.615021 
	C207.669556,328.866791 208.245804,329.118561 208.859680,329.201691 
	C208.859680,329.201691 208.691208,329.240112 208.938828,329.737610 
z"/>
<path fill="#473913" opacity="1.000000" stroke="none" 
	d="
M343.716858,432.119049 
	C350.933899,405.675385 345.362274,378.448425 347.024597,351.542328 
	C347.372467,345.911591 347.317413,340.255981 348.196167,334.284210 
	C377.958801,333.971069 406.973267,333.985535 435.987762,334.000031 
	C422.695312,334.168823 409.403320,334.413513 396.110321,334.486481 
	C380.629486,334.571503 365.147827,334.506317 349.018188,334.506317 
	C348.922974,336.568542 348.758698,338.476929 348.758301,340.385376 
	C348.753174,364.867554 349.081726,389.356293 348.564056,413.827271 
	C348.435852,419.886932 345.582184,425.888947 343.716858,432.119049 
z"/>
<path fill="#1D1A12" opacity="1.000000" stroke="none" 
	d="
M319.003357,66.007141 
	C317.776947,66.337906 316.551025,66.955536 315.324097,66.957535 
	C283.405334,67.009369 251.486465,66.999336 219.567642,66.981300 
	C218.920868,66.980942 218.274246,66.758850 217.327393,66.355087 
	C217.552765,65.893028 218.078293,65.716087 219.288223,65.430168 
	C250.848984,65.350349 281.725342,65.367783 312.601593,65.434120 
	C314.735931,65.438705 316.869446,65.807648 319.003357,66.007141 
z"/>
<path fill="#1E190E" opacity="1.000000" stroke="none" 
	d="
M72.074753,202.285797 
	C72.479057,203.236389 72.962318,204.500946 72.963905,205.766098 
	C73.005814,239.166321 73.000648,272.566620 72.982590,305.966888 
	C72.982155,306.777405 72.743393,307.587799 72.327385,308.699036 
	C72.000389,308.520386 71.961800,308.040955 71.993774,306.832458 
	C71.792885,301.723297 71.521423,297.343201 71.211113,292.499634 
	C71.210533,286.702850 71.248795,281.369568 71.514297,275.720306 
	C71.585670,272.590912 71.429802,269.777466 71.235962,266.643372 
	C71.225487,265.893890 71.252975,265.465088 71.507530,264.720245 
	C71.582687,261.590881 71.430779,258.777557 71.236740,255.532745 
	C71.220306,253.079529 71.246010,251.057785 71.502281,248.713928 
	C71.580215,245.249496 71.427582,242.107193 71.235703,238.500336 
	C71.253304,227.708069 71.310150,217.380325 71.536636,206.841187 
	C71.653709,206.286407 71.601135,205.943008 71.593872,205.319733 
	C71.617813,204.671753 71.596436,204.303635 71.575058,203.935516 
	C71.693123,203.490356 71.811188,203.045212 72.074753,202.285797 
z"/>
<path fill="#F8C743" opacity="1.000000" stroke="none" 
	d="
M348.785828,95.996239 
	C349.188660,97.847908 349.935211,99.698326 349.941956,101.551437 
	C350.023743,124.041626 350.087555,146.532913 349.912231,169.022018 
	C349.881378,172.976654 351.013550,174.115814 354.973846,174.089188 
	C379.962128,173.921219 404.952118,173.996582 429.941528,174.019928 
	C431.755798,174.021622 433.569855,174.247360 435.221802,174.674286 
	C406.401367,174.969955 377.743134,174.960266 349.084900,174.950592 
	C349.084900,174.950592 348.879852,174.920380 348.858398,174.508530 
	C348.819916,148.063202 348.802887,122.029716 348.785828,95.996239 
z"/>
<path fill="#2C2209" opacity="1.000000" stroke="none" 
	d="
M348.581268,95.700424 
	C348.802887,122.029716 348.819916,148.063202 348.770081,174.562729 
	C348.138397,171.797256 347.099304,168.567917 347.084381,165.333862 
	C346.972290,141.017151 347.061981,116.699501 347.151886,91.865616 
	C347.602386,92.700928 347.989532,94.052765 348.581268,95.700424 
z"/>
<path fill="#473913" opacity="1.000000" stroke="none" 
	d="
M204.232544,442.270142 
	C204.549683,442.016083 205.146606,441.878235 205.528915,442.103943 
	C215.551178,448.020508 226.614136,447.044861 237.546768,447.028198 
	C258.496399,446.996277 279.446411,446.954987 300.395691,447.046539 
	C310.181061,447.089294 319.961670,447.398560 329.804138,444.192352 
	C325.663208,445.570435 321.128082,447.945953 316.565155,448.000610 
	C285.618378,448.371429 254.665710,448.258820 223.714951,448.286407 
	C216.720932,448.292633 210.243912,446.495728 204.232544,442.270142 
z"/>
<path fill="#EDC148" opacity="1.000000" stroke="none" 
	d="
M319.405762,65.968605 
	C316.869446,65.807648 314.735931,65.438705 312.601593,65.434120 
	C281.725342,65.367783 250.848984,65.350349 219.509766,65.261543 
	C220.727539,64.803192 222.407379,64.060783 224.088974,64.056778 
	C254.693832,63.983841 285.300415,63.848976 315.902283,64.159363 
	C320.482574,64.205826 325.040771,66.428551 329.712738,68.008057 
	C326.480255,67.557747 323.144226,66.743904 319.405762,65.968605 
z"/>
<path fill="#372709" opacity="1.000000" stroke="none" 
	d="
M461.363007,317.858490 
	C462.056976,313.980743 463.033386,309.897125 464.293457,305.103821 
	C464.688599,302.419830 464.893250,300.445709 464.897461,298.471222 
	C464.962219,267.962585 465.000885,237.453918 465.045654,206.945251 
	C465.172791,223.082977 465.347412,239.220520 465.413391,255.358505 
	C465.476013,270.677277 465.749908,286.007111 465.250580,301.309906 
	C465.071716,306.790863 462.904938,312.206940 461.363007,317.858490 
z"/>
<path fill="#372709" opacity="1.000000" stroke="none" 
	d="
M436.403351,334.002930 
	C406.973267,333.985535 377.958801,333.971069 348.477173,333.978699 
	C349.896301,333.670044 351.781830,333.056519 353.669006,333.051422 
	C377.553131,332.986633 401.438660,332.877045 425.321228,333.081512 
	C433.682281,333.153076 441.815613,332.644623 449.939484,329.311401 
	C445.823608,330.942719 441.321259,332.474304 436.403351,334.002930 
z"/>
<path fill="#EDBD57" opacity="1.000000" stroke="none" 
	d="
M71.271713,249.036026 
	C71.246010,251.057785 71.220306,253.079529 71.124825,255.975464 
	C71.130188,259.578522 71.205322,262.307373 71.280464,265.036255 
	C71.252975,265.465088 71.225487,265.893890 71.121063,267.085632 
	C71.125099,270.577759 71.206078,273.307037 71.287064,276.036285 
	C71.248795,281.369568 71.210533,286.702850 71.099197,292.954437 
	C71.173782,298.187347 71.321426,302.501923 71.469070,306.816528 
	C70.980003,305.550690 70.067085,304.285889 70.063850,303.018829 
	C69.982590,271.161072 69.988579,239.303101 70.031189,207.445236 
	C70.032616,206.377686 70.574280,205.310852 71.219589,204.089600 
	C71.596436,204.303635 71.617813,204.671753 71.438919,205.535980 
	C71.281433,206.372269 71.324211,206.712418 71.366989,207.052582 
	C71.310150,217.380325 71.253304,227.708069 71.120605,238.946014 
	C71.120399,242.916168 71.196053,245.976089 71.271713,249.036026 
z"/>
<path fill="#2C1F07" opacity="1.000000" stroke="none" 
	d="
M90.055412,331.362793 
	C121.449295,335.222595 153.247818,331.960022 184.959167,333.013153 
	C186.105148,333.051208 187.244965,333.274567 188.652481,333.727051 
	C159.889359,334.093445 130.860916,334.239258 101.834122,334.081207 
	C97.988754,334.060272 94.151794,332.492737 90.055412,331.362793 
z"/>
<path fill="#211906" opacity="1.000000" stroke="none" 
	d="
M465.120636,206.560089 
	C465.000885,237.453918 464.962219,267.962585 464.897461,298.471222 
	C464.893250,300.445709 464.688599,302.419830 464.298615,304.700592 
	C464.017365,270.953735 464.014679,236.900406 464.025330,202.371674 
	C464.424347,203.322479 464.809998,204.748703 465.120636,206.560089 
z"/>
<path fill="#2C2209" opacity="1.000000" stroke="none" 
	d="
M442.968231,177.500549 
	C412.638153,177.502777 382.060638,177.250000 351.483337,176.974136 
	C350.843536,176.968369 350.206116,176.695755 349.764526,176.238586 
	C379.000427,175.908920 408.039459,175.888290 437.078461,175.867661 
	C438.959259,176.326096 440.840027,176.784515 442.968231,177.500549 
z"/>
<path fill="#B79E49" opacity="1.000000" stroke="none" 
	d="
M436.941528,175.666382 
	C408.039459,175.888290 379.000427,175.908920 349.494720,175.918060 
	C349.028015,175.906601 348.966278,175.423233 349.025574,175.186920 
	C377.743134,174.960266 406.401367,174.969955 435.527344,174.956207 
	C436.300964,175.055405 436.570831,175.232834 436.941528,175.666382 
z"/>
<path fill="#2C1F07" opacity="1.000000" stroke="none" 
	d="
M189.243301,334.429016 
	C189.678040,335.030823 190.904694,335.977081 190.904953,336.923676 
	C190.912399,363.716919 190.796249,390.510162 190.437744,417.614502 
	C190.046448,415.784637 189.815613,413.644226 189.804504,411.502655 
	C189.671982,385.926392 189.572083,360.349976 189.243301,334.429016 
z"/>
<path fill="#00000000" opacity="1.000000" stroke="none" 
	d="
M5.503798,377.960999 
	C5.108241,375.012482 5.060834,371.916443 5.083879,368.360199 
	C5.386870,371.204498 5.619409,374.508942 5.503798,377.960999 
z"/>
<path fill="#00000000" opacity="1.000000" stroke="none" 
	d="
M33.943047,52.373299 
	C35.454426,51.092949 36.810455,50.087597 38.473236,49.057274 
	C36.756367,51.299988 34.732742,53.567669 32.378063,55.833889 
	C32.627243,54.771049 33.207470,53.709671 33.943047,52.373299 
z"/>
<path fill="#00000000" opacity="1.000000" stroke="none" 
	d="
M5.509249,279.959747 
	C5.119874,277.336975 5.075032,274.569489 5.108155,271.345306 
	C5.408673,273.864105 5.631227,276.839539 5.509249,279.959747 
z"/>
<path fill="#00000000" opacity="1.000000" stroke="none" 
	d="
M5.502654,152.949219 
	C5.121023,150.981293 5.074568,148.884033 5.104234,146.341400 
	C5.399513,148.203979 5.618671,150.511932 5.502654,152.949219 
z"/>
<path fill="#5D4819" opacity="1.000000" stroke="none" 
	d="
M71.592102,306.879822 
	C71.321426,302.501923 71.173782,298.187347 71.138046,293.417908 
	C71.521423,297.343201 71.792885,301.723297 72.021103,306.566650 
	C71.977852,307.029907 71.715126,306.943115 71.592102,306.879822 
z"/>
<path fill="#00000000" opacity="1.000000" stroke="none" 
	d="
M89.294281,13.559160 
	C90.448341,12.680972 91.932419,11.920229 93.766624,11.199893 
	C92.619270,12.052402 91.121796,12.864504 89.294281,13.559160 
z"/>
<path fill="#473913" opacity="1.000000" stroke="none" 
	d="
M193.993088,429.017944 
	C194.669128,430.434845 195.345169,431.851776 196.016968,433.621490 
	C195.047531,432.529846 194.082336,431.085388 193.325256,429.319336 
	C193.533340,428.997711 193.993088,429.017944 193.993088,429.017944 
z"/>
<path fill="#00000000" opacity="1.000000" stroke="none" 
	d="
M5.468731,352.982727 
	C5.116336,351.969421 5.069370,350.850952 5.095929,349.317261 
	C5.371023,350.227203 5.572592,351.552399 5.468731,352.982727 
z"/>
<path fill="#2C1F07" opacity="1.000000" stroke="none" 
	d="
M190.581894,421.518097 
	C191.323792,422.926147 192.083267,424.711517 192.709442,426.887573 
	C191.917267,425.484009 191.258377,423.689697 190.581894,421.518097 
z"/>
<path fill="#2C2209" opacity="1.000000" stroke="none" 
	d="
M347.451721,90.690353 
	C346.694702,89.228577 345.941162,87.368797 345.272827,85.114548 
	C346.057068,86.577499 346.756134,88.434921 347.451721,90.690353 
z"/>
<path fill="#00000000" opacity="1.000000" stroke="none" 
	d="
M27.353996,62.853783 
	C27.498652,62.004433 27.945227,61.158417 28.669413,60.198032 
	C28.516655,61.008148 28.086285,61.932636 27.353996,62.853783 
z"/>
<path fill="#00000000" opacity="1.000000" stroke="none" 
	d="
M61.443104,27.972103 
	C61.358089,27.500278 61.600777,27.043756 61.974174,26.360699 
	C62.494671,26.095860 62.884457,26.057554 63.565887,26.036343 
	C63.161961,26.698090 62.466385,27.342747 61.443104,27.972103 
z"/>
<path fill="#372709" opacity="1.000000" stroke="none" 
	d="
M458.565857,322.186768 
	C458.756592,321.346710 459.235107,320.363678 460.047699,319.326111 
	C459.872406,320.195618 459.363037,321.119690 458.565857,322.186768 
z"/>
<path fill="#00000000" opacity="1.000000" stroke="none" 
	d="
M23.361176,68.853493 
	C23.399523,68.283295 23.736708,67.691582 24.334974,67.039688 
	C24.284042,67.597000 23.972027,68.214485 23.361176,68.853493 
z"/>
<path fill="#473913" opacity="1.000000" stroke="none" 
	d="
M341.622314,435.188782 
	C341.813019,434.367767 342.277740,433.398956 343.075195,432.399963 
	C342.904022,433.260162 342.400177,434.150574 341.622314,435.188782 
z"/>
<path fill="#00000000" opacity="1.000000" stroke="none" 
	d="
M40.483631,46.995564 
	C40.478016,46.415504 40.762478,45.766869 41.317627,45.046745 
	C41.316776,45.625835 41.045246,46.276409 40.483631,46.995564 
z"/>
<path fill="#00000000" opacity="1.000000" stroke="none" 
	d="
M14.485658,87.039948 
	C14.330708,86.528336 14.430120,85.957031 14.788713,85.233505 
	C14.945271,85.714272 14.842646,86.347267 14.485658,87.039948 
z"/>
<path fill="#00000000" opacity="1.000000" stroke="none" 
	d="
M12.473005,91.979218 
	C12.414343,91.416084 12.646092,90.778633 13.117353,90.042694 
	C13.159048,90.597771 12.961232,91.251335 12.473005,91.979218 
z"/>
<path fill="#00000000" opacity="1.000000" stroke="none" 
	d="
M5.428841,337.046021 
	C5.125597,336.626587 5.079704,336.125824 5.102735,335.252258 
	C5.343169,335.574554 5.514680,336.269592 5.428841,337.046021 
z"/>
<path fill="#00000000" opacity="1.000000" stroke="none" 
	d="
M98.228287,10.236465 
	C98.554001,9.729703 99.028938,9.428682 99.802795,9.178440 
	C99.526985,9.633548 98.952255,10.037876 98.228287,10.236465 
z"/>
<path fill="#00000000" opacity="1.000000" stroke="none" 
	d="
M10.480643,99.032303 
	C10.320172,98.524574 10.415744,97.958138 10.765257,97.237411 
	C10.925028,97.713272 10.830857,98.343430 10.480643,99.032303 
z"/>
<path fill="#00000000" opacity="1.000000" stroke="none" 
	d="
M8.477699,106.035263 
	C8.312792,105.533379 8.403105,104.967331 8.745058,104.245285 
	C8.908772,104.716553 8.820846,105.343826 8.477699,106.035263 
z"/>
<path fill="#00000000" opacity="1.000000" stroke="none" 
	d="
M6.482281,117.043793 
	C6.322094,116.541046 6.414678,115.970619 6.760054,115.241600 
	C6.920248,115.714043 6.827650,116.345078 6.482281,117.043793 
z"/>
<path fill="#00000000" opacity="1.000000" stroke="none" 
	d="
M116.230438,6.208163 
	C116.568756,5.709265 117.053864,5.414653 117.841080,5.170363 
	C117.554535,5.617940 116.965881,6.015194 116.230438,6.208163 
z"/>
<path fill="#473913" opacity="1.000000" stroke="none" 
	d="
M196.075134,434.285706 
	C196.632812,434.501740 197.242630,435.012848 197.834442,435.856995 
	C197.253403,435.653656 196.690338,435.117188 196.075134,434.285706 
z"/>
<path fill="#00000000" opacity="1.000000" stroke="none" 
	d="
M106.235825,8.173757 
	C106.569046,7.679653 107.039017,7.398262 107.799866,7.165059 
	C107.518021,7.604321 106.945297,7.995395 106.235825,8.173757 
z"/>
<path fill="#473913" opacity="1.000000" stroke="none" 
	d="
M200.865768,439.500397 
	C201.416092,439.653534 202.082520,440.086884 202.848114,440.817810 
	C202.292160,440.670441 201.637024,440.225525 200.865768,439.500397 
z"/>
<path fill="#211906" opacity="1.000000" stroke="none" 
	d="
M464.033783,200.588562 
	C463.639740,200.030869 463.356262,199.092667 463.106079,197.760223 
	C463.474335,198.313339 463.809326,199.260696 464.033783,200.588562 
z"/>
<path fill="#2C2209" opacity="1.000000" stroke="none" 
	d="
M445.960693,178.573486 
	C445.252472,178.670868 444.329315,178.506683 443.275299,177.998688 
	C444.011536,177.873901 444.878662,178.092911 445.960693,178.573486 
z"/>
<path fill="#473913" opacity="1.000000" stroke="none" 
	d="
M332.458923,443.210083 
	C332.596466,442.853210 333.034088,442.462585 333.790344,442.076080 
	C333.658966,442.445587 333.208984,442.810974 332.458923,443.210083 
z"/>
<path fill="#EDBD57" opacity="1.000000" stroke="none" 
	d="
M71.936493,200.172058 
	C72.146500,200.531647 72.105423,200.976639 71.914612,201.724365 
	C71.738388,201.437210 71.711899,200.847321 71.936493,200.172058 
z"/>
<path fill="#2C1F07" opacity="1.000000" stroke="none" 
	d="
M193.957642,428.687561 
	C193.993088,429.017944 193.533340,428.997711 193.303528,428.985138 
	C192.896088,428.633209 192.718460,428.293854 192.509064,427.670898 
	C192.958939,427.710571 193.440552,428.033875 193.957642,428.687561 
z"/>
<path fill="#473913" opacity="1.000000" stroke="none" 
	d="
M330.497040,444.262695 
	C330.644989,443.902802 331.089752,443.515167 331.860199,443.174377 
	C331.721893,443.559143 331.257874,443.897064 330.497040,444.262695 
z"/>
<path fill="#EDC148" opacity="1.000000" stroke="none" 
	d="
M331.717407,69.036507 
	C331.229279,69.186867 330.653625,69.001549 329.907837,68.562752 
	C330.368439,68.439789 330.999176,68.570312 331.717407,69.036507 
z"/>
<path fill="#EDC148" opacity="1.000000" stroke="none" 
	d="
M334.797607,70.975929 
	C334.367828,71.027618 333.826141,70.777618 333.114899,70.278275 
	C333.525452,70.244034 334.105560,70.459137 334.797607,70.975929 
z"/>
<path fill="#2C2209" opacity="1.000000" stroke="none" 
	d="
M343.219910,80.564339 
	C342.868591,80.437981 342.465424,80.017822 342.049500,79.280991 
	C342.413879,79.399734 342.790955,79.835136 343.219910,80.564339 
z"/>
<path fill="#2C2209" opacity="1.000000" stroke="none" 
	d="
M344.354614,82.446991 
	C343.981750,82.317703 343.554901,81.892654 343.169495,81.126205 
	C343.574158,81.240280 343.937378,81.695755 344.354614,82.446991 
z"/>
<path fill="#2C2209" opacity="1.000000" stroke="none" 
	d="
M345.411957,84.413925 
	C345.027832,84.274170 344.603638,83.839188 344.266266,83.058472 
	C344.692688,83.181404 345.032288,83.650047 345.411957,84.413925 
z"/>
<path fill="#2C2209" opacity="1.000000" stroke="none" 
	d="
M448.026428,179.551682 
	C447.586761,179.664139 446.971741,179.520538 446.224426,179.071915 
	C446.678467,178.943115 447.264740,179.119370 448.026428,179.551682 
z"/>
<path fill="#2C2209" opacity="1.000000" stroke="none" 
	d="
M450.079193,180.620789 
	C449.637482,180.708420 449.005676,180.540146 448.239807,180.056396 
	C448.700226,179.948914 449.294647,180.156891 450.079193,180.620789 
z"/>
<path fill="#372709" opacity="1.000000" stroke="none" 
	d="
M456.284668,324.925415 
	C456.275787,324.482452 456.533905,323.930573 457.120056,323.379028 
	C457.149323,323.858398 456.850525,324.337494 456.284668,324.925415 
z"/>
<path fill="#372709" opacity="1.000000" stroke="none" 
	d="
M454.738190,326.378632 
	C454.779968,326.008240 455.081390,325.536743 455.708435,325.041260 
	C455.688629,325.437347 455.343231,325.857452 454.738190,326.378632 
z"/>
<path fill="#372709" opacity="1.000000" stroke="none" 
	d="
M450.609070,329.350006 
	C450.714569,328.982941 451.103729,328.547455 451.826660,328.131958 
	C451.737823,328.528473 451.315277,328.905029 450.609070,329.350006 
z"/>
<path fill="#473913" opacity="1.000000" stroke="none" 
	d="
M338.766418,438.312164 
	C338.673492,438.076416 338.763550,437.770325 339.121002,437.537964 
	C339.326904,437.880859 339.180573,438.090912 338.766418,438.312164 
z"/>
<path fill="#473913" opacity="1.000000" stroke="none" 
	d="
M199.819839,438.507385 
	C200.046661,438.412170 200.363068,438.559082 200.731323,438.977478 
	C200.491943,439.082489 200.200684,438.916016 199.819839,438.507385 
z"/>
<path fill="#473913" opacity="1.000000" stroke="none" 
	d="
M337.764954,439.297394 
	C337.669495,439.067871 337.757416,438.758728 338.116516,438.508667 
	C338.324738,438.840820 338.178253,439.057526 337.764954,439.297394 
z"/>
<path fill="#473913" opacity="1.000000" stroke="none" 
	d="
M336.617950,440.286407 
	C336.549530,440.044098 336.691833,439.742950 337.105011,439.505737 
	C337.284485,439.864655 337.102081,440.083954 336.617950,440.286407 
z"/>
<path fill="#473913" opacity="1.000000" stroke="none" 
	d="
M335.427979,441.233673 
	C335.371063,440.997162 335.567474,440.695038 336.049866,440.389984 
	C336.117676,440.647369 335.899506,440.907715 335.427979,441.233673 
z"/>
<path fill="#00000000" opacity="1.000000" stroke="none" 
	d="
M22.933102,449.676575 
	C22.628092,449.839142 22.390583,449.645844 22.258850,449.078278 
	C22.544258,448.964569 22.756248,449.170135 22.933102,449.676575 
z"/>
<path fill="#00000000" opacity="1.000000" stroke="none" 
	d="
M109.326340,6.877369 
	C109.188766,6.566035 109.397873,6.343983 109.971222,6.251266 
	C110.058617,6.536184 109.837799,6.731535 109.326340,6.877369 
z"/>
<path fill="#372709" opacity="1.000000" stroke="none" 
	d="
M452.378418,328.125916 
	C452.326233,327.890564 452.535095,327.597046 453.027954,327.292114 
	C453.087799,327.543060 452.863617,327.805420 452.378418,328.125916 
z"/>
<path fill="#372709" opacity="1.000000" stroke="none" 
	d="
M453.518372,327.273071 
	C453.456451,327.019287 453.633423,326.702759 454.103027,326.438293 
	C454.287933,326.823425 454.075134,327.063446 453.518372,327.273071 
z"/>
<path fill="#372709" opacity="1.000000" stroke="none" 
	d="
M457.649689,323.274933 
	C457.530914,323.038696 457.641632,322.693420 458.046265,322.314636 
	C458.186554,322.576050 458.032867,322.870972 457.649689,323.274933 
z"/>
<path fill="#372709" opacity="1.000000" stroke="none" 
	d="
M460.550629,319.172119 
	C460.416687,318.972321 460.504181,318.637939 460.835510,318.185638 
	C460.976929,318.390991 460.874512,318.714264 460.550629,319.172119 
z"/>
<path fill="#473913" opacity="1.000000" stroke="none" 
	d="
M198.834106,437.464752 
	C199.064835,437.386566 199.370377,437.555298 199.708313,437.998413 
	C199.463425,438.085724 199.186172,437.898712 198.834106,437.464752 
z"/>
<path fill="#EDC148" opacity="1.000000" stroke="none" 
	d="
M332.855530,69.807449 
	C332.640503,69.947624 332.296082,69.842789 331.827637,69.492348 
	C332.044464,69.351982 332.385315,69.457214 332.855530,69.807449 
z"/>
<path fill="#00000000" opacity="1.000000" stroke="none" 
	d="
M13.931717,431.656067 
	C13.614059,431.819672 13.380254,431.623383 13.288116,431.043396 
	C13.578709,430.947144 13.773970,431.159302 13.931717,431.656067 
z"/>
<path fill="#00000000" opacity="1.000000" stroke="none" 
	d="
M14.920596,433.657288 
	C14.616731,433.822510 14.385015,433.636597 14.264946,433.080933 
	C14.548300,432.967438 14.753686,433.165802 14.920596,433.657288 
z"/>
<path fill="#473913" opacity="1.000000" stroke="none" 
	d="
M340.799744,436.255737 
	C340.666962,436.037781 340.725861,435.710052 341.066437,435.369324 
	C341.339600,435.669403 341.220703,435.932617 340.799744,436.255737 
z"/>
<path fill="#473913" opacity="1.000000" stroke="none" 
	d="
M197.871826,436.412598 
	C198.100159,436.339661 198.399887,436.518463 198.741394,436.967712 
	C198.503204,437.046906 198.223221,436.855621 197.871826,436.412598 
z"/>
<path fill="#473913" opacity="1.000000" stroke="none" 
	d="
M339.803436,437.304260 
	C339.704498,437.071930 339.782654,436.765411 340.128815,436.531067 
	C340.341980,436.867889 340.203217,437.076843 339.803436,437.304260 
z"/>
<path fill="#F7C634" opacity="1.000000" stroke="none" 
	d="
M206.755142,328.071503 
	C197.926987,322.721954 194.651184,314.274323 193.475037,303.792694 
	C193.313156,271.375061 193.314651,239.728638 193.316147,208.082230 
	C196.265686,193.608047 204.067627,183.640045 219.102036,180.493530 
	C221.197800,180.054916 223.384689,179.876709 225.529678,179.874603 
	C254.621399,179.846191 283.713715,179.767731 312.804718,179.921082 
	C329.336517,180.008224 341.158020,189.879318 344.152924,206.545746 
	C344.033203,238.516083 344.006073,269.601929 344.032776,300.687744 
	C344.033997,302.115021 344.518921,303.541901 344.778595,304.968964 
	C344.204132,319.515717 333.895386,331.034821 318.462280,333.229462 
	C284.995270,333.104462 252.411209,333.138428 219.827148,333.172394 
	C219.827148,333.172394 219.967834,333.196411 219.764404,332.910278 
	C218.299057,332.516266 217.037155,332.408417 215.775238,332.300537 
	C215.775238,332.300537 215.902039,332.362549 215.740692,332.037720 
	C214.352951,331.497620 213.126556,331.282379 211.900146,331.067139 
	C211.900146,331.067139 211.971756,331.030457 211.820679,330.795837 
	C211.087296,330.389526 210.504974,330.217865 209.922668,330.046204 
	C209.922668,330.046173 209.982712,330.005341 209.850647,329.792755 
	C209.376129,329.466827 209.033661,329.353455 208.691208,329.240112 
	C208.691208,329.240112 208.859680,329.201691 208.745758,328.950592 
	C208.006271,328.490143 207.380707,328.280823 206.755142,328.071503 
z"/>
<path fill="#1C180C" opacity="1.000000" stroke="none" 
	d="
M345.908081,210.020355 
	C346.271576,211.225754 346.950104,212.430527 346.952454,213.636612 
	C347.009613,242.907043 346.996979,272.177612 346.978088,301.448181 
	C346.977661,302.095825 346.757751,302.743347 346.337494,303.416992 
	C345.801788,302.942200 345.568817,302.441376 345.292725,301.477936 
	C345.267242,271.363647 345.284882,241.711960 345.499878,211.862000 
	C345.767548,211.115952 345.837830,210.568146 345.908081,210.020355 
z"/>
<path fill="#F0CB4F" opacity="1.000000" stroke="none" 
	d="
M220.152634,333.451233 
	C252.411209,333.138428 284.995270,333.104462 318.094238,333.100067 
	C317.197968,333.454559 315.786896,334.062286 314.375641,334.062714 
	C283.904388,334.071930 253.433151,334.015167 222.961929,333.958038 
	C222.133865,333.956482 221.306046,333.809326 220.152634,333.451233 
z"/>
<path fill="#F2C95A" opacity="1.000000" stroke="none" 
	d="
M345.302521,212.060257 
	C345.284882,241.711960 345.267242,271.363647 345.184296,301.829956 
	C345.172821,303.130920 345.226654,303.617279 345.280487,304.103607 
	C345.210480,304.255676 345.140503,304.407715 344.924561,304.764343 
	C344.518921,303.541901 344.033997,302.115021 344.032776,300.687744 
	C344.006073,269.601929 344.033203,238.516083 344.079102,206.914673 
	C344.387726,207.329453 344.667206,208.259766 344.977539,209.920593 
	C345.106445,211.120819 345.204468,211.590530 345.302521,212.060257 
z"/>
<path fill="#1C160B" opacity="1.000000" stroke="none" 
	d="
M192.952789,208.301346 
	C193.314651,239.728638 193.313156,271.375061 193.246750,303.481812 
	C192.788956,302.589050 192.056183,301.236633 192.053131,299.882599 
	C191.987137,270.552399 191.996002,241.222015 192.027008,211.891693 
	C192.028198,210.767746 192.393692,209.644196 192.952789,208.301346 
z"/>
<path fill="#F0CB4F" opacity="1.000000" stroke="none" 
	d="
M216.023163,332.572754 
	C217.037155,332.408417 218.299057,332.516266 219.734406,332.975037 
	C218.695587,333.165619 217.483322,333.005310 216.023163,332.572754 
z"/>
<path fill="#F0CB4F" opacity="1.000000" stroke="none" 
	d="
M212.141449,331.330078 
	C213.126556,331.282379 214.352951,331.497620 215.690094,332.086914 
	C214.661499,332.171631 213.522125,331.882324 212.141449,331.330078 
z"/>
<path fill="#F0CB4F" opacity="1.000000" stroke="none" 
	d="
M210.099396,330.293396 
	C210.504974,330.217865 211.087296,330.389526 211.819641,330.836060 
	C211.405151,330.920807 210.840637,330.730713 210.099396,330.293396 
z"/>
<path fill="#624E1A" opacity="1.000000" stroke="none" 
	d="
M345.499878,211.862000 
	C345.204468,211.590530 345.106445,211.120819 345.054199,210.290131 
	C345.099976,209.929169 345.503235,209.989365 345.705658,210.004852 
	C345.837830,210.568146 345.767548,211.115952 345.499878,211.862000 
z"/>
<path fill="#624E1A" opacity="1.000000" stroke="none" 
	d="
M345.483459,304.092590 
	C345.226654,303.617279 345.172821,303.130920 345.227417,302.292542 
	C345.568817,302.441376 345.801788,302.942200 346.061096,303.728882 
	C346.087463,304.014740 345.686432,304.081573 345.483459,304.092590 
z"/>
<path fill="#F0CB4F" opacity="1.000000" stroke="none" 
	d="
M206.924225,328.343262 
	C207.380707,328.280823 208.006271,328.490143 208.726929,329.034912 
	C208.245804,329.118561 207.669556,328.866791 206.924225,328.343262 
z"/>
<path fill="#F0CB4F" opacity="1.000000" stroke="none" 
	d="
M208.815018,329.488861 
	C209.033661,329.353455 209.376129,329.466827 209.846466,329.828827 
	C209.629166,329.964172 209.283997,329.850891 208.815018,329.488861 
z"/>
<path fill="#5D4819" opacity="1.000000" stroke="none" 
	d="
M71.502281,248.713928 
	C71.196053,245.976089 71.120399,242.916168 71.159851,239.410553 
	C71.427582,242.107193 71.580215,245.249496 71.502281,248.713928 
z"/>
<path fill="#5D4819" opacity="1.000000" stroke="none" 
	d="
M71.514297,275.720306 
	C71.206078,273.307037 71.125099,270.577759 71.159027,267.406281 
	C71.429802,269.777466 71.585670,272.590912 71.514297,275.720306 
z"/>
<path fill="#5D4819" opacity="1.000000" stroke="none" 
	d="
M71.507530,264.720245 
	C71.205322,262.307373 71.130188,259.578522 71.166962,256.406921 
	C71.430779,258.777557 71.582687,261.590881 71.507530,264.720245 
z"/>
<path fill="#5D4819" opacity="1.000000" stroke="none" 
	d="
M71.536636,206.841187 
	C71.324211,206.712418 71.281433,206.372269 71.393600,205.815857 
	C71.601135,205.943008 71.653709,206.286407 71.536636,206.841187 
z"/>
</svg>